<svg width="64" height="64" viewBox="0 0 64 64" fill="none" xmlns="http://www.w3.org/2000/svg">
<rect width="64" height="64" rx="12" fill="url(#paint0_linear_1032_17919)"/>
<g clip-path="url(#clip0_1032_17919)">
<path d="M24.7948 36.7986C24.4447 36.802 24.1379 36.8854 23.8495 36.9071C20.7666 37.6565 18.0052 38.9048 15.7253 41.0622C15.275 41.4927 14.7763 41.8147 14.1811 41.9199C12.9623 42.1352 12.0508 41.2728 12.1914 40.0782C12.2165 39.7228 12.3034 39.3858 12.4519 39.0671C12.9877 37.6273 13.6518 36.2525 14.5677 34.9794C15.4602 33.7397 16.281 32.4249 17.1785 31.2136C18.5063 29.4583 20.0874 27.98 21.9501 26.7736C23.0558 26.0811 24.133 25.3936 25.3203 24.8329C26.1024 24.4608 26.8994 24.1737 27.7397 23.9668C28.6934 23.7398 29.5802 23.9633 30.3752 24.4954C31.0369 24.9341 31.0085 24.9391 31.3573 24.2634C31.5575 23.9063 31.7294 23.5543 32.0012 23.2723C32.2398 22.967 32.545 22.7083 32.8985 22.5582C33.4354 22.2878 33.9656 22.3111 34.4422 22.6948C34.9188 23.0785 35.0653 23.579 34.9567 24.1246C34.9216 24.4232 34.8064 24.7652 34.6429 24.9988C33.8622 26.0433 33.0765 27.0594 32.2908 28.0755C32.1174 28.2524 31.9106 28.4059 31.6988 28.5311C30.9551 28.9549 30.19 28.5929 30.017 27.7755C29.9771 27.5486 29.9655 27.3167 29.9256 27.0898C29.9041 26.8011 29.8825 26.5125 29.8326 26.2289C29.7478 25.7467 29.4379 25.4798 28.9778 25.3564C28.5177 25.233 28.0259 25.2614 27.5874 25.4266C25.7566 25.9841 24.1707 26.9369 22.7914 28.2333C21.1069 29.7884 19.8607 31.6755 18.8145 33.7027C18.6192 34.0881 18.429 34.5019 18.2338 34.8873C18.197 35.0107 18.1469 35.2243 18.2236 35.3277C18.3435 35.5112 18.527 35.3911 18.687 35.3043C18.9888 35.1925 19.2857 35.0523 19.5825 34.9122C22.1788 33.7224 24.8732 32.9246 27.6792 32.4288C28.4729 32.2886 29.2914 32.2902 30.0465 32.5954C30.8299 32.8956 31.4449 33.4011 31.863 34.1168C32.4494 35.1244 32.0771 36.3307 31.0315 36.8664C30.5796 37.1217 30.0694 37.2118 29.5726 37.2119C28.3189 37.2287 27.092 37.0653 25.865 36.9019C25.505 36.8486 25.1449 36.7952 24.7948 36.7986Z" fill="white"/>
<path d="M37.1742 30.6634C37.1908 30.9237 37.5275 31.0104 37.696 30.8052C37.9012 30.4765 38.1397 30.1712 38.3783 29.8658C38.5184 29.6656 38.6635 29.4937 38.832 29.2885C39.661 28.3525 41.1897 28.404 41.9278 29.4434C42.1627 29.782 42.2843 30.1407 42.3824 30.5328C42.5904 31.5488 42.5666 32.5765 42.2727 33.5642C42.0473 34.2766 41.6986 34.9524 41.2499 35.558C40.988 35.8967 40.6927 36.2121 40.2875 36.4007C39.774 36.6376 39.2722 36.6093 38.8055 36.2824C38.3672 35.9504 38.2257 35.4783 38.2776 34.9427C38.3212 34.5256 38.5214 34.1685 38.7549 33.8348C39.0769 33.3393 39.4322 32.8671 39.7875 32.3949C40.0444 32.0279 40.268 31.6374 40.3632 31.182C40.4034 30.9117 40.4435 30.6414 40.422 30.3528C40.3755 29.9223 40.0521 29.7455 39.6186 29.9391C39.19 30.161 38.7998 30.4347 38.5195 30.8351C38.1876 31.2739 37.8939 31.7645 37.6003 32.255C37.4184 32.5503 37.2749 32.8974 37.1264 33.216C37.0613 33.3445 36.9679 33.478 36.8929 33.5497C36.7944 33.6549 36.6527 33.6799 36.496 33.6199C36.3727 33.5832 36.2911 33.4514 36.2945 33.3046C36.3212 33.1244 36.348 32.9442 36.3747 32.764C36.5518 31.9431 36.4121 31.149 36.2441 30.3599C36.2391 30.3315 36.2058 30.3082 36.2058 30.3082C36.1142 30.1196 35.8491 30.108 35.7607 30.2698C35.714 30.3366 35.6956 30.3983 35.6489 30.465C35.2083 31.4494 35.0095 32.4788 35.1707 33.5616C35.2521 34.1906 35.4135 34.7762 35.5183 35.3718C35.5965 35.6504 35.6798 35.9573 35.7013 36.246C35.7179 36.5062 35.7111 36.7999 35.6092 37.0518C35.3521 37.916 34.38 38.2048 33.6651 37.6293C33.3984 37.4424 33.2352 37.1788 33.0953 36.8819C32.8155 36.288 32.7057 35.664 32.7377 35.015C32.8549 33.8538 32.9671 32.6642 33.236 31.5347C33.3914 30.9224 33.58 30.3334 33.897 29.8095C34.1022 29.4808 34.3408 29.1755 34.5843 28.8985C34.7995 28.6266 35.1246 28.4814 35.4548 28.3646C36.2051 28.1443 36.8184 28.4745 37.0382 29.2253C37.1264 29.5606 37.1296 29.911 37.1611 30.2563C37.181 30.3698 37.1776 30.5166 37.1742 30.6634Z" fill="white"/>
<path d="M45.502 28.2562C45.3219 28.2295 45.1036 28.1512 45.0251 28.3697C44.9233 28.6217 45.1283 28.7901 45.2999 28.9353C45.5432 29.1555 45.7816 29.3473 46.0199 29.5392C46.8681 30.2081 47.7164 30.877 48.5647 31.546C48.698 31.6394 48.8363 31.7611 48.9513 31.9163C49.2479 32.2733 49.186 32.7521 48.8091 32.9357C48.6724 32.9891 48.5024 33.0191 48.3606 33.0442C47.2786 33.2061 46.2648 33.59 45.4242 34.2941C45.2691 34.4092 45.1474 34.5477 44.9823 34.6061C44.7372 34.7079 44.4971 34.8381 44.2653 34.8498C43.7785 34.9066 43.3368 34.7214 43.0486 34.2459C42.727 33.7471 42.7223 33.2216 42.9592 32.7411C43.1077 32.4224 43.3329 32.2072 43.5964 32.0436C44.0249 31.8217 44.4968 31.6798 44.9886 31.6514C45.3387 31.6481 45.6605 31.6497 46.0106 31.6463C46.214 31.6396 46.4174 31.6329 46.7675 31.6296C46.5809 31.3993 45.7426 30.7871 45.3859 30.587C45.0859 30.3768 44.7576 30.1716 44.4576 29.9614C44.0809 29.6478 43.746 29.2391 43.5145 28.7536C43.2297 28.1313 43.2433 27.5441 43.5603 27.0201C43.6954 26.7916 43.8689 26.6147 44.0707 26.4328C45.053 25.7036 46.1618 25.3615 47.432 25.605C47.7354 25.6683 48.0488 25.7884 48.3338 25.9135C48.5905 26.0436 48.8005 26.2405 48.9921 26.4991C49.347 27.0212 49.3767 27.6886 49.0447 28.1274C48.8112 28.4611 48.5193 28.6296 48.1175 28.6714C47.7207 28.7415 47.2756 28.7032 46.8489 28.6031C46.3888 28.4797 45.9571 28.3513 45.502 28.2562Z" fill="white"/>
</g>
<defs>
<linearGradient id="paint0_linear_1032_17919" x1="6.08464e-08" y1="32" x2="64" y2="32" gradientUnits="userSpaceOnUse">
<stop stop-color="#0DAEFF"/>
<stop offset="1" stop-color="#004099"/>
</linearGradient>
<clipPath id="clip0_1032_17919">
<rect width="40" height="40" fill="white" transform="translate(12 12)"/>
</clipPath>
</defs>
</svg>
