<svg width="2000" height="2000" viewBox="0 0 2000 2000" fill="none" xmlns="http://www.w3.org/2000/svg">
<g opacity="0.6">
<path d="M1628.03 944.852C1624.31 944.888 1621.05 945.777 1617.98 946.008C1585.21 953.99 1555.86 967.285 1531.63 990.263C1526.84 994.848 1521.54 998.278 1515.22 999.398C1502.26 1001.69 1492.58 992.506 1494.07 979.783C1494.34 975.998 1495.26 972.408 1496.84 969.014C1502.53 953.679 1509.59 939.036 1519.33 925.477C1528.81 912.273 1537.54 898.27 1547.08 885.368C1561.19 866.673 1577.99 850.928 1597.79 838.078C1609.54 830.703 1620.99 823.381 1633.61 817.409C1641.93 813.445 1650.4 810.388 1659.33 808.184C1669.46 805.766 1678.89 808.146 1687.34 813.814C1694.37 818.487 1694.07 818.54 1697.78 811.343C1699.91 807.54 1701.73 803.791 1704.62 800.787C1707.16 797.535 1710.4 794.781 1714.16 793.181C1719.87 790.302 1725.5 790.55 1730.57 794.636C1735.63 798.723 1737.19 804.053 1736.04 809.864C1735.66 813.045 1734.44 816.688 1732.7 819.176C1724.4 830.3 1716.05 841.123 1707.7 851.945C1705.86 853.829 1703.66 855.464 1701.41 856.797C1693.5 861.311 1685.37 857.456 1683.53 848.749C1683.11 846.333 1682.99 843.863 1682.56 841.446C1682.33 838.372 1682.1 835.298 1681.57 832.277C1680.67 827.142 1677.38 824.299 1672.49 822.985C1667.6 821.67 1662.37 821.973 1657.71 823.732C1638.25 829.669 1621.39 839.817 1606.73 853.626C1588.83 870.189 1575.58 890.287 1564.46 911.879C1562.39 915.983 1560.37 920.391 1558.29 924.496C1557.9 925.81 1557.37 928.085 1558.18 929.187C1559.46 931.141 1561.41 929.862 1563.11 928.937C1566.32 927.747 1569.47 926.254 1572.63 924.761C1600.22 912.088 1628.86 903.591 1658.69 898.311C1667.12 896.817 1675.82 896.834 1683.85 900.085C1692.17 903.283 1698.71 908.666 1703.15 916.289C1709.39 927.021 1705.43 939.869 1694.32 945.574C1689.51 948.293 1684.09 949.254 1678.81 949.254C1665.48 949.433 1652.44 947.693 1639.4 945.953C1635.58 945.385 1631.75 944.816 1628.03 944.852Z" fill="#DADFE6"/>
<path d="M1759.6 879.508C1759.78 882.28 1763.36 883.204 1765.15 881.018C1767.33 877.517 1769.87 874.265 1772.4 871.013C1773.89 868.881 1775.43 867.05 1777.22 864.864C1786.04 854.895 1802.28 855.444 1810.13 866.514C1812.63 870.121 1813.92 873.941 1814.96 878.117C1817.17 888.938 1816.92 899.884 1813.79 910.404C1811.4 917.992 1807.69 925.189 1802.92 931.64C1800.14 935.247 1797 938.606 1792.69 940.614C1787.24 943.138 1781.9 942.836 1776.94 939.354C1772.28 935.819 1770.78 930.79 1771.33 925.086C1771.79 920.643 1773.92 916.841 1776.41 913.286C1779.83 908.008 1783.6 902.979 1787.38 897.95C1790.11 894.041 1792.49 889.882 1793.5 885.031C1793.93 882.152 1794.35 879.274 1794.12 876.2C1793.63 871.615 1790.19 869.732 1785.58 871.794C1781.03 874.157 1776.88 877.072 1773.9 881.337C1770.38 886.011 1767.25 891.235 1764.13 896.46C1762.2 899.605 1760.67 903.301 1759.1 906.696C1758.4 908.064 1757.41 909.486 1756.61 910.25C1755.57 911.369 1754.06 911.636 1752.4 910.997C1751.09 910.606 1750.22 909.202 1750.25 907.638C1750.54 905.719 1750.82 903.8 1751.11 901.881C1752.99 893.138 1751.5 884.68 1749.72 876.275C1749.67 875.973 1749.31 875.724 1749.31 875.724C1748.34 873.716 1745.52 873.592 1744.58 875.316C1744.08 876.027 1743.89 876.684 1743.39 877.395C1738.71 887.88 1736.6 898.844 1738.31 910.376C1739.17 917.075 1740.89 923.312 1742 929.656C1742.84 932.623 1743.72 935.892 1743.95 938.967C1744.13 941.739 1744.05 944.866 1742.97 947.549C1740.24 956.754 1729.91 959.829 1722.31 953.7C1719.47 951.71 1717.74 948.902 1716.25 945.74C1713.28 939.414 1712.11 932.768 1712.45 925.856C1713.7 913.488 1714.89 900.818 1717.75 888.788C1719.4 882.267 1721.4 875.994 1724.77 870.414C1726.95 866.913 1729.49 863.661 1732.08 860.711C1734.36 857.814 1737.82 856.268 1741.33 855.024C1749.3 852.677 1755.82 856.195 1758.16 864.191C1759.1 867.763 1759.13 871.494 1759.46 875.172C1759.68 876.381 1759.64 877.944 1759.6 879.508Z" fill="#DADFE6"/>
<path d="M1848.12 853.87C1846.2 853.586 1843.88 852.751 1843.05 855.079C1841.97 857.762 1844.15 859.556 1845.97 861.102C1848.56 863.447 1851.09 865.491 1853.62 867.534C1862.64 874.659 1871.65 881.783 1880.67 888.908C1882.09 889.903 1883.56 891.2 1884.78 892.852C1887.93 896.655 1887.27 901.755 1883.27 903.71C1881.81 904.278 1880.01 904.598 1878.5 904.865C1867 906.59 1856.22 910.678 1847.29 918.178C1845.64 919.404 1844.35 920.879 1842.59 921.501C1839.99 922.585 1837.44 923.971 1834.97 924.096C1829.8 924.701 1825.1 922.729 1822.04 917.665C1818.62 912.352 1818.57 906.755 1821.09 901.637C1822.67 898.243 1825.06 895.95 1827.86 894.209C1832.42 891.845 1837.43 890.334 1842.66 890.031C1846.38 889.995 1849.8 890.013 1853.52 889.977C1855.69 889.905 1857.85 889.834 1861.57 889.798C1859.58 887.346 1850.67 880.826 1846.88 878.694C1843.69 876.455 1840.21 874.27 1837.02 872.031C1833.01 868.691 1829.45 864.338 1826.99 859.167C1823.97 852.539 1824.11 846.285 1827.48 840.705C1828.92 838.27 1830.76 836.386 1832.9 834.449C1843.35 826.683 1855.13 823.039 1868.63 825.632C1871.86 826.307 1875.19 827.586 1878.22 828.918C1880.94 830.304 1883.18 832.401 1885.21 835.155C1888.98 840.716 1889.3 847.824 1885.77 852.498C1883.29 856.052 1880.19 857.847 1875.92 858.291C1871.7 859.038 1866.97 858.63 1862.43 857.564C1857.54 856.25 1852.95 854.882 1848.12 853.87Z" fill="#DADFE6"/>
<path d="M329.682 934.393C328.617 923.627 324.047 915.263 315.971 909.302C307.895 903.34 296.935 900.36 283.09 900.36C273.683 900.36 265.74 901.694 259.262 904.364C252.783 906.944 247.814 910.547 244.352 915.174C240.98 919.801 239.294 925.05 239.294 930.923C239.116 935.816 240.137 940.087 242.356 943.735C244.663 947.383 247.813 950.542 251.807 953.211C255.801 955.791 260.416 958.06 265.652 960.018C270.888 961.886 276.479 963.488 282.425 964.822L306.919 970.695C318.811 973.364 329.727 976.923 339.666 981.372C349.606 985.82 358.214 991.292 365.492 997.788C372.769 1004.28 378.404 1011.93 382.398 1020.74C386.48 1029.55 388.566 1039.65 388.655 1051.04C388.566 1067.77 384.306 1082.27 375.875 1094.55C367.533 1106.74 355.463 1116.21 339.666 1122.98C323.958 1129.65 305.011 1132.99 282.824 1132.99C260.815 1132.99 241.646 1129.6 225.316 1122.84C209.076 1116.08 196.385 1106.07 187.244 1092.81C178.192 1079.47 173.444 1062.96 173 1043.3H228.777C229.399 1052.46 232.017 1060.11 236.631 1066.25C241.335 1072.3 247.592 1076.89 255.401 1080C263.3 1083.03 272.219 1084.54 282.158 1084.54C291.921 1084.54 300.396 1083.11 307.584 1080.27C314.862 1077.42 320.497 1073.46 324.491 1068.39C328.484 1063.32 330.481 1057.49 330.481 1050.91C330.481 1044.77 328.662 1039.61 325.023 1035.42C321.473 1031.24 316.237 1027.68 309.315 1024.75C302.481 1021.81 294.095 1019.14 284.155 1016.74L254.47 1009.27C231.484 1003.66 213.335 994.896 200.023 982.973C186.711 971.051 180.1 954.991 180.188 934.793C180.1 918.244 184.493 903.785 193.367 891.418C202.331 879.05 214.622 869.396 230.242 862.456C245.861 855.516 263.61 852.046 283.49 852.046C303.724 852.046 321.385 855.516 336.471 862.456C351.647 869.396 363.451 879.05 371.881 891.418C380.312 903.785 384.661 918.11 384.927 934.393H329.682Z" fill="#DADFE6"/>
<path d="M416.989 1129.12V924.116H473.698V1129.12H416.989ZM445.477 897.69C437.046 897.69 429.813 894.888 423.778 889.282C417.832 883.588 414.859 876.781 414.859 868.862C414.859 861.033 417.832 854.315 423.778 848.71C429.813 843.015 437.046 840.168 445.477 840.168C453.908 840.168 461.096 843.015 467.042 848.71C473.077 854.315 476.095 861.033 476.095 868.862C476.095 876.781 473.077 883.588 467.042 889.282C461.096 894.888 453.908 897.69 445.477 897.69Z" fill="#DADFE6"/>
<path d="M509.754 1129.12V924.116H563.801V960.285H566.197C570.457 948.273 577.556 938.797 587.496 931.857C597.436 924.917 609.328 921.447 623.172 921.447C637.194 921.447 649.131 924.961 658.982 931.99C668.832 938.93 675.4 948.362 678.683 960.285H680.813C684.984 948.54 692.528 939.153 703.444 932.124C714.448 925.006 727.45 921.447 742.448 921.447C761.528 921.447 777.015 927.542 788.907 939.731C800.888 951.832 806.878 969.004 806.878 991.248V1129.12H750.302V1002.46C750.302 991.07 747.285 982.528 741.25 976.834C735.215 971.14 727.672 968.292 718.619 968.292C708.325 968.292 700.293 971.584 694.525 978.169C688.756 984.664 685.872 993.25 685.872 1003.93V1129.12H630.893V1001.26C630.893 991.203 628.009 983.196 622.24 977.234C616.561 971.273 609.062 968.292 599.743 968.292C593.442 968.292 587.762 969.894 582.704 973.097C577.734 976.211 573.785 980.615 570.856 986.31C567.927 991.915 566.463 998.499 566.463 1006.06V1129.12H509.754Z" fill="#DADFE6"/>
<path d="M952.259 924.116V966.824H826.061V924.116H952.259ZM854.948 1129.12V909.302C854.948 894.443 857.832 882.12 863.6 872.333C869.458 862.545 877.445 855.205 887.562 850.311C897.679 845.418 909.172 842.971 922.04 842.971C930.737 842.971 938.68 843.638 945.869 844.973C953.146 846.307 958.559 847.508 962.109 848.576L951.992 891.284C949.774 890.572 947.022 889.905 943.739 889.282C940.544 888.659 937.26 888.348 933.888 888.348C925.546 888.348 919.733 890.306 916.449 894.22C913.166 898.046 911.524 903.429 911.524 910.369V1129.12H854.948Z" fill="#DADFE6"/>
<path d="M1034.24 855.783V1129.12H977.531V855.783H1034.24Z" fill="#DADFE6"/>
<path d="M1162.38 1133.12C1141.34 1133.12 1123.24 1128.85 1108.06 1120.31C1092.98 1111.68 1081.35 1099.49 1073.19 1083.74C1065.02 1067.9 1060.94 1049.17 1060.94 1027.55C1060.94 1006.46 1065.02 987.956 1073.19 972.029C1081.35 956.103 1092.84 943.691 1107.67 934.793C1122.57 925.896 1140.06 921.447 1160.11 921.447C1173.6 921.447 1186.16 923.627 1197.79 927.987C1209.5 932.257 1219.71 938.708 1228.41 947.339C1237.19 955.969 1244.02 966.824 1248.91 979.904C1253.79 992.894 1256.23 1008.11 1256.23 1025.55V1041.16H1083.57V1005.93H1202.85C1202.85 997.743 1201.07 990.492 1197.52 984.174C1193.97 977.857 1189.05 972.919 1182.74 969.36C1176.53 965.712 1169.3 963.888 1161.05 963.888C1152.44 963.888 1144.81 965.89 1138.15 969.894C1131.58 973.809 1126.44 979.103 1122.71 985.776C1118.98 992.36 1117.07 999.701 1116.98 1007.8V1041.3C1116.98 1051.44 1118.85 1060.2 1122.57 1067.59C1126.39 1074.97 1131.76 1080.67 1138.68 1084.67C1145.6 1088.68 1153.81 1090.68 1163.31 1090.68C1169.61 1090.68 1175.38 1089.79 1180.62 1088.01C1185.85 1086.23 1190.33 1083.56 1194.06 1080C1197.79 1076.44 1200.63 1072.08 1202.58 1066.92L1255.03 1070.39C1252.37 1083.03 1246.91 1094.06 1238.66 1103.49C1230.49 1112.83 1219.93 1120.13 1206.97 1125.38C1194.1 1130.54 1179.24 1133.12 1162.38 1133.12Z" fill="#DADFE6"/>
<path d="M1317.67 924.116L1355.21 995.786L1393.68 924.116H1451.86L1392.62 1026.62L1453.45 1129.12H1395.55L1355.21 1058.25L1315.54 1129.12H1256.97L1317.67 1026.62L1259.1 924.116H1317.67Z" fill="#DADFE6"/>
</g>
<g opacity="0.4">
<path d="M828.007 594.061L1603.47 386.327C1625.52 380.419 1648.19 393.505 1654.1 415.555L1744.28 752.013H1815.62L1720.66 397.725C1704.9 338.923 1644.45 304.027 1585.63 319.783L742.34 545.689L511.678 415.444C471.011 392.481 419.423 406.825 396.454 447.483L224.416 752.013H303.555L456.453 481.362C460.707 473.833 470.26 471.177 477.791 475.429L652.459 574.057C611.139 598.668 589.392 648.535 602.455 697.276L617.126 752.013H688.465L669.016 679.446C663.106 657.395 676.195 634.729 698.251 628.821L732.973 619.52L967.616 752.013H1107.74L828.007 594.061Z" fill="#DADFE6"/>
<path d="M964.011 1248.03H884.872L841.826 1324.23L821.404 1248.03H750.065L793.442 1409.88L756.122 1475.94C751.869 1483.46 742.316 1486.12 734.785 1481.87L320.664 1248.03H180.543L700.897 1541.85C741.565 1564.82 793.153 1550.47 816.122 1509.81L818.906 1504.89L845.008 1602.28C860.767 1661.08 921.223 1695.97 980.039 1680.22L1885.26 1437.72C1944.07 1421.97 1978.98 1361.53 1963.22 1302.72L1921.76 1148.04V1248.03H1877.22L1896.66 1320.55C1902.57 1342.61 1889.48 1365.27 1867.42 1371.18L962.204 1613.67C940.148 1619.58 917.477 1606.5 911.568 1584.44L867.29 1419.24L964.011 1248.03Z" fill="#DADFE6"/>
<path d="M101.209 1203.23V1117.8C100.829 1115.84 100.818 1113.81 101.209 1111.81V970.105L42.9478 1073.24C19.9789 1113.89 34.3267 1165.47 74.9945 1188.43L101.209 1203.23Z" fill="#DADFE6"/>
</g>
</svg>
