<svg xmlns="http://www.w3.org/2000/svg" style="display: none;">
    <!-- ====== TRUE ====== -->
    <symbol id="icon-slim-true" viewBox="0 0 24 24">
        <path stroke="currentColor" fill="none" stroke-linecap="round" d="m5 14 3.233 2.425a1 1 0 0 0 1.374-.167L18 6"/>
    </symbol>

    <!-- ====== CLOSE ====== -->
    <symbol id="icon-slim-close" viewBox="0 0 24 24">
        <path stroke="currentColor" fill="none" stroke-linecap="square" stroke-linejoin="round" d="m18 6-6 6m0 0-6 6m6-6L6 6m6 6 6 6"/>
    </symbol>

    <!-- ====== PLAY ====== -->
    <symbol id="icon-slim-play" viewBox="0 0 24 24">
        <path stroke="currentColor" fill="none" stroke-linecap="round" stroke-linejoin="round" d="M16.211 11.106 9.737 7.868A1.2 1.2 0 0 0 8 8.942v6.116a1.2 1.2 0 0 0 1.737 1.074l6.474-3.238a1 1 0 0 0 0-1.788Z"/>
    </symbol>

    <!-- ====== HOME ====== -->
    <symbol id="icon-slim-home" viewBox="0 0 24 24">
        <mask id="icon-slim-home-mask" fill="#fff">
            <path d="M5 12.76c0-1.358 0-2.037.274-2.634.275-.596.79-1.038 1.821-1.922l1-.857C9.96 5.75 10.89 4.951 12 4.951c1.11 0 2.041.799 3.905 2.396l1 .857c1.03.884 1.546 1.326 1.82 1.922.275.597.275 1.276.275 2.634V17c0 1.886 0 2.828-.586 3.414C17.828 21 16.886 21 15 21H9c-1.886 0-2.828 0-3.414-.586C5 19.828 5 18.886 5 17v-4.24Z"/>
        </mask>
        <path mask="url(#icon-slim-home-mask)" fill="currentColor" stroke="none" d="M14 21a.5.5 0 0 0 1 0h-1Zm-5 0a.5.5 0 0 0 1 0H9Zm1.5-5.5h3v-1h-3v1Zm3.5.5v5h1v-5h-1Zm-5 0v5h1v-5H9Zm4.5-.5a.5.5 0 0 1 .5.5h1a1.5 1.5 0 0 0-1.5-1.5v1Zm-3-1A1.5 1.5 0 0 0 9 16h1a.5.5 0 0 1 .5-.5v-1ZM8.095 7.347l.651.76-.65-.76Zm7.81 0-.651.76.65-.76Zm1 .857.65-.76-.65.76Zm-9.81 0-.65-.76.65.76ZM18 12.76V17h2v-4.24h-2ZM15 20H9v2h6v-2Zm-9-3v-4.24H4V17h2Zm1.746-8.037 1-.857-1.302-1.518-1 .857 1.302 1.518Zm7.508-.857 1 .857 1.301-1.518-1-.857-1.301 1.518Zm-6.508 0c.951-.815 1.595-1.365 2.135-1.721.517-.342.834-.434 1.119-.434v-2c-.825 0-1.528.307-2.22.765-.67.442-1.424 1.09-2.336 1.872l1.302 1.518Zm7.81-1.518c-.913-.782-1.666-1.43-2.335-1.872-.693-.458-1.396-.765-2.221-.765v2c.285 0 .602.092 1.119.434.54.356 1.184.906 2.135 1.721l1.301-1.518ZM9 20c-.971 0-1.599-.002-2.061-.064-.434-.059-.57-.153-.646-.229l-1.414 1.414c.51.51 1.138.709 1.793.797C7.3 22.002 8.085 22 9 22v-2Zm-5-3c0 .915-.002 1.701.082 2.328.088.655.287 1.284.797 1.793l1.414-1.414c-.076-.076-.17-.212-.229-.646C6.002 18.6 6 17.971 6 17.001H4Zm14 0c0 .971-.002 1.599-.064 2.061-.059.434-.153.57-.229.646l1.414 1.414c.51-.51.709-1.138.797-1.793C20.002 18.7 20 17.915 20 17h-2Zm-3 5c.915 0 1.701.002 2.328-.082.655-.088 1.284-.287 1.793-.797l-1.414-1.414c-.076.076-.212.17-.646.229-.462.062-1.09.064-2.061.064v2Zm5-9.24c0-1.267.021-2.21-.366-3.052l-1.817.836c.162.351.183.766.183 2.216h2Zm-3.746-3.797c1.1.944 1.401 1.23 1.563 1.581l1.817-.836c-.387-.842-1.117-1.44-2.079-2.263l-1.301 1.518ZM6 12.76c0-1.45.021-1.864.183-2.216l-1.817-.836C3.979 10.551 4 11.493 4 12.76h2Zm.444-5.315c-.96.824-1.69 1.421-2.078 2.263l1.817.836c.162-.351.463-.637 1.563-1.58l-1.302-1.52Z"/>
    </symbol>

    <!-- ====== PHONE ====== -->
    <symbol id="icon-slim-phone" viewBox="0 0 24 24">
        <path stroke="currentColor" fill="none" d="m17.708 13.707 2.648 2.648a.912.912 0 0 1 0 1.29 5.471 5.471 0 0 1-7.15.508l-1.576-1.182a23 23 0 0 1-4.6-4.6l-1.182-1.575a5.471 5.471 0 0 1 .508-7.151.912.912 0 0 1 1.29 0l2.648 2.648a1 1 0 0 1 0 1.414L9.273 8.728a.533.533 0 0 0-.1.616 12.263 12.263 0 0 0 5.484 5.484.533.533 0 0 0 .616-.1l1.021-1.02a1 1 0 0 1 1.414 0Z"/>
    </symbol>

    <!-- ====== MAIL ====== -->
    <symbol id="icon-slim-mail" viewBox="0 0 24 24">
        <path stroke="currentColor" fill="none" d="M4.5 10c0-.957.001-1.624.069-2.128.066-.49.186-.748.37-.933.185-.184.444-.304.933-.37C6.376 6.5 7.043 6.5 8 6.5h8c.957 0 1.624.001 2.128.069.49.066.748.186.933.37.184.185.305.444.37.933.068.504.069 1.171.069 2.128v4c0 .957-.001 1.624-.069 2.128-.066.49-.186.748-.37.933-.185.184-.444.305-.933.37-.504.068-1.171.069-2.128.069H8c-.957 0-1.624-.001-2.128-.069-.49-.066-.748-.186-.933-.37-.184-.185-.304-.444-.37-.933C4.5 15.624 4.5 14.957 4.5 14v-4Z"/>
    </symbol>

    <!-- ====== MARKER ====== -->
    <symbol id="icon-slim-marker" viewBox="0 0 24 24">
        <path stroke="currentColor" fill="none" d="M19.5 12c0 5.018-5.488 8.403-7.075 9.276a.87.87 0 0 1-.85 0C9.988 20.403 4.5 17.018 4.5 12c0-4.5 3.634-7.5 7.5-7.5 4 0 7.5 3 7.5 7.5Z"/>
        <path stroke="currentColor" fill="none" d="M16 12a4 4 0 1 1-8 0 4 4 0 0 1 8 0Z"/>
    </symbol>

    <!-- ====== PAPERCLIP ====== -->
    <symbol id="icon-slim-paperclip" viewBox="0 0 24 24">
        <path stroke="currentColor" fill="none" stroke-linecap="round" d="M10.5 6.5V15a1.5 1.5 0 0 0 3 0V6.5a3 3 0 1 0-6 0V17a4.5 4.5 0 1 0 9 0V9.5"/>
    </symbol>

    <!-- ====== DOWNLOAD ====== -->
    <symbol id="icon-slim-download" viewBox="0 0 24 24">
        <path fill="currentColor" stroke="none" d="m12 14-.354.354.354.353.354-.353L12 14Zm.5-9a.5.5 0 0 0-1 0h1ZM7 19v-.5.5Zm10 0v.5-.5ZM6.646 9.354l5 5 .708-.708-5-5-.708.708Zm5.708 5 5-5-.708-.708-5 5 .708.708ZM12.5 14V5h-1v9h1ZM7 19.5h10v-1H7v1ZM5.5 17v-1h-1v1h1Zm14 0v-1h-1v1h1ZM17 19.5a2.5 2.5 0 0 0 2.5-2.5h-1a1.5 1.5 0 0 1-1.5 1.5v1Zm-10-1A1.5 1.5 0 0 1 5.5 17h-1A2.5 2.5 0 0 0 7 19.5v-1Z"/>
    </symbol>

    <!-- ====== EYE ====== -->
    <symbol id="icon-slim-eye" viewBox="0 0 24 24">
        <path stroke="currentColor" fill="none" d="M16 12a4 4 0 1 1-8 0 4 4 0 0 1 8 0Z"/>
        <path stroke="currentColor" fill="none" d="M20.189 10.934c.388.472.582.707.582 1.066 0 .359-.194.594-.582 1.066C18.769 14.79 15.636 18 12 18s-6.768-3.21-8.188-4.934c-.388-.472-.583-.707-.583-1.066 0-.359.195-.594.583-1.066C5.233 9.21 8.365 6 12 6c3.636 0 6.768 3.21 8.188 4.934Z"/>
    </symbol>

    <!-- ====== SETTINGS ====== -->
    <symbol id="icon-slim-settings" viewBox="0 0 24 24">
        <path stroke="currentColor" fill="none" d="M13.984 2.542c.087.169.109.386.152.82.082.82.123 1.23.295 1.456a1 1 0 0 0 .929.384c.28-.037.6-.298 1.238-.82.337-.277.506-.415.687-.473a1 1 0 0 1 .702.035c.175.076.33.23.637.538l.894.894c.308.308.462.462.538.637a1 1 0 0 1 .035.702c-.058.181-.196.35-.472.687-.523.639-.784.958-.822 1.239a1 1 0 0 0 .385.928c.225.172.636.213 1.457.295.433.043.65.065.82.152a1 1 0 0 1 .47.521c.071.177.071.395.071.831v1.264c0 .436 0 .654-.07.83a1 1 0 0 1-.472.522c-.169.087-.386.109-.82.152-.82.082-1.23.123-1.456.295a1 1 0 0 0-.384.929c.038.28.299.6.821 1.238.276.337.414.505.472.687a1 1 0 0 1-.035.702c-.076.175-.23.329-.538.637l-.894.893c-.308.309-.462.463-.637.538a1 1 0 0 1-.702.035c-.181-.058-.35-.196-.687-.472-.639-.522-.958-.783-1.238-.82a1 1 0 0 0-.929.384c-.172.225-.213.635-.295 1.456-.043.434-.065.651-.152.82a1 1 0 0 1-.521.472c-.177.07-.395.07-.831.07h-1.264c-.436 0-.654 0-.83-.07a1 1 0 0 1-.522-.472c-.087-.169-.109-.386-.152-.82-.082-.82-.123-1.23-.295-1.456a1 1 0 0 0-.928-.384c-.281.037-.6.298-1.239.82-.337.277-.506.415-.687.473a1 1 0 0 1-.702-.035c-.175-.076-.33-.23-.637-.538l-.894-.894c-.308-.308-.462-.462-.538-.637a1 1 0 0 1-.035-.702c.058-.181.196-.35.472-.687.523-.639.784-.958.821-1.239a1 1 0 0 0-.384-.928c-.225-.172-.636-.213-1.457-.295-.433-.043-.65-.065-.82-.152a1 1 0 0 1-.47-.521C2 13.286 2 13.068 2 12.632v-1.264c0-.436 0-.654.07-.83a1 1 0 0 1 .472-.522c.169-.087.386-.109.82-.152.82-.082 1.231-.123 1.456-.295a1 1 0 0 0 .385-.928c-.038-.281-.3-.6-.822-1.24-.276-.337-.414-.505-.472-.687a1 1 0 0 1 .035-.702c.076-.174.23-.329.538-.637l.894-.893c.308-.308.462-.463.637-.538a1 1 0 0 1 .702-.035c.181.058.35.196.687.472.639.522.958.783 1.238.821a1 1 0 0 0 .93-.385c.17-.225.212-.635.294-1.456.043-.433.065-.65.152-.82a1 1 0 0 1 .521-.471c.177-.07.395-.07.831-.07h1.264c.436 0 .654 0 .83.07a1 1 0 0 1 .522.472ZM12 16a4 4 0 1 0 0-8 4 4 0 0 0 0 8Z" clip-rule="evenodd"/>
    </symbol>

    <!-- ====== EDIT ====== -->
    <symbol id="icon-slim-edit" viewBox="0 0 24 24">
        <path fill="currentColor" stroke="none" d="m6.391 14.608.354.354-.354-.354Zm7.194-7.194-.353-.353.353.353Zm2.829 0-.354.354.354-.354Zm.171.172.354-.354-.354.354Zm0 2.828.354.354-.354-.354Zm-7.194 7.194-.353-.353.353.353Zm-3.526-2.07.485.12-.485-.12Zm-.664 2.654-.485-.122.485.122Zm.607.606.121.485-.121-.485Zm2.654-.664-.121-.485.12.485Zm-3.296.7.354-.354-.354.353Zm3.815-.867-.247-.435.247.435ZM6.032 15.02l-.435-.247.435.246Zm6.675-6.726a.5.5 0 1 0-.708.707l.707-.707ZM14.998 12a.5.5 0 0 0 .707-.707L15 12Zm-8.254 2.962 7.194-7.194-.707-.707-7.194 7.194.707.707Zm9.315-7.194.172.171.707-.707-.172-.171-.707.707Zm.172 2.293-7.194 7.194.707.707 7.194-7.194-.707-.707ZM5.38 15.416l-.664 2.654.97.243.664-2.654-.97-.243Zm.55 3.867 2.653-.664-.242-.97-2.654.664.242.97ZM4.715 18.07c-.04.165-.087.343-.101.491-.015.155-.012.416.198.626l.707-.707a.317.317 0 0 1 .084.15c.008.036.004.052.006.029a1.1 1.1 0 0 1 .022-.12c.014-.062.032-.134.055-.226l-.97-.243Zm.97.243-.225.054a1.05 1.05 0 0 1-.12.022c-.024.003-.007-.002.029.006.046.01.102.037.15.085l-.707.707c.209.21.47.213.625.197.148-.014.327-.06.491-.101l-.242-.97Zm3.352-1.058c-.214.213-.258.251-.304.277l.493.87c.191-.108.342-.264.518-.44l-.707-.707Zm-.455 1.364c.242-.06.453-.108.644-.217l-.493-.87c-.045.026-.1.044-.393.117l.242.97Zm7.649-10.68c.343.344.564.566.706.752.132.174.147.255.147.309h1c0-.36-.152-.653-.352-.916-.192-.251-.471-.528-.794-.852l-.707.707Zm.707 2.829c.323-.324.602-.6.794-.852.2-.263.352-.556.352-.916h-1c0 .054-.015.135-.147.31-.142.185-.363.407-.706.75l.707.708Zm-3-3c.343-.344.566-.565.751-.706.174-.133.255-.148.31-.148v-1c-.361 0-.653.152-.916.353-.252.191-.53.47-.852.794l.707.707Zm2.828-.707c-.323-.324-.6-.603-.852-.794-.263-.2-.555-.353-.916-.353v1c.054 0 .135.015.31.148.185.141.408.362.751.706l.707-.707Zm-10.73 7.194c-.175.176-.332.326-.44.517l.87.493c.026-.046.064-.09.278-.303l-.707-.707Zm.313 1.404c.073-.293.091-.349.117-.394l-.87-.493c-.108.191-.157.403-.217.644l.97.243ZM12 9l3 3 .707-.707-3-3-.708.707Z"/>
    </symbol>

    <!-- ====== BAG ====== -->
    <symbol id="icon-slim-bag" viewBox="0 0 24 24">
        <path stroke="currentColor" fill="none" stroke-linecap="round" d="M7.999 12V8a4 4 0 0 1 8 0v4M5.172 21h13.653c1.017 0 1.526 0 1.823-.323.297-.323.255-.83.17-1.843l-.514-6.166c-.145-1.741-.217-2.611-.791-3.14C18.939 9 18.065 9 16.318 9H7.68c-1.747 0-2.62 0-3.194.528-.574.528-.647 1.399-.792 3.14l-.514 6.166c-.084 1.013-.126 1.52.17 1.843.298.323.806.323 1.823.323Z"/>
    </symbol>

    <!-- ====== USER ====== -->
    <symbol id="icon-slim-user" viewBox="0 0 24 24">
        <path stroke="currentColor" fill="none" stroke-linecap="round" d="M19.728 19.447c-.456-1.276-1.46-2.403-2.857-3.207C15.474 15.436 13.76 15 12 15c-1.761 0-3.473.436-4.87 1.24-1.397.804-2.402 1.931-2.858 3.207M16.001 8a4 4 0 1 1-8 0 4 4 0 0 1 8 0Z"/>
    </symbol>

    <!-- ====== FILTER ====== -->
    <symbol id="icon-slim-filter" viewBox="0 0 24 24">
        <path stroke="currentColor" fill="none" stroke-linecap="round" d="M12 7h8m-8 0a2 2 0 1 0-4 0m4 0a2 2 0 1 1-4 0M4 7h4m9 10h3m-3 0a2 2 0 1 0-4 0m4 0a2 2 0 1 1-4 0m-9 0h9"/>
    </symbol>

    <!-- ====== SEARCH ====== -->
    <symbol id="icon-slim-search" viewBox="0 0 24 24">
        <path stroke="currentColor" fill="none" stroke-linecap="round" d="M11 8a3 3 0 0 0-3 3m12 9-3-3m0-6a6 6 0 1 1-12 0 6 6 0 0 1 12 0Z"/>
    </symbol>

    <!-- ====== HEART ====== -->
    <symbol id="icon-slim-heart" viewBox="0 0 24 24">
        <path stroke="currentColor" fill="none" d="m4.45 13.908 6.952 6.531c.24.225.36.338.5.366a.499.499 0 0 0 .193 0c.141-.028.261-.14.5-.366l6.953-6.53a5.203 5.203 0 0 0 .549-6.983l-.31-.399c-1.968-2.536-5.919-2.111-7.302.787a.54.54 0 0 1-.973 0C10.13 4.416 6.178 3.99 4.21 6.527l-.31.399a5.203 5.203 0 0 0 .55 6.982Z"/>
    </symbol>

    <!-- ====== LIKE ====== -->
    <symbol id="icon-slim-like" viewBox="0 0 24 24">
        <path stroke="currentColor" fill="none" stroke-linecap="round" d="m8.5 11.5 1.894-3.789a1 1 0 0 0 .106-.447V5.5a1 1 0 0 1 1-1 2 2 0 0 1 2 2v4m-2 0h5.997a1 1 0 0 1 .96 1.28l-1.747 6a1 1 0 0 1-.96.72h-3.836a1 1 0 0 1-.707-.293l-.414-.414a1 1 0 0 0-.707-.293H8.5m-3 0h2.85a.15.15 0 0 0 .15-.15v-6.7a.15.15 0 0 0-.15-.15H5.5a1 1 0 0 0-1 1v5a1 1 0 0 0 1 1Z"/>
    </symbol>

    <!-- ====== DISLIKE ====== -->
    <symbol id="icon-slim-dislike" viewBox="0 0 24 24">
        <path stroke="currentColor" fill="none" stroke-linecap="round" d="m15.502 12.5-1.895 3.789a1 1 0 0 0-.105.447V18.5a1 1 0 0 1-1 1 2 2 0 0 1-2-2v-4m2 0H6.505a1 1 0 0 1-.96-1.28l1.747-6a1 1 0 0 1 .96-.72h3.835a1 1 0 0 1 .708.293l.414.414a1 1 0 0 0 .707.293h1.586m3 0h-2.85a.15.15 0 0 0-.15.15v6.7c0 .083.067.15.15.15h2.85a1 1 0 0 0 1-1v-5a1 1 0 0 0-1-1Z"/>
    </symbol>

    <!-- ====== FILE ====== -->
    <symbol id="icon-slim-file" viewBox="0 0 24 24">
        <path stroke="currentColor" fill="none" d="M12.5 3.5v3.6c0 .84 0 1.26.164 1.581a1.5 1.5 0 0 0 .655.656c.32.163.74.163 1.581.163h3.6m-.703-1.703-3.594-3.594c-.26-.26-.39-.39-.54-.482a1.5 1.5 0 0 0-.434-.18c-.173-.041-.356-.041-.723-.041H7.9c-.84 0-1.26 0-1.581.163a1.5 1.5 0 0 0-.656.656c-.163.32-.163.74-.163 1.581v12.2c0 .84 0 1.26.163 1.581a1.5 1.5 0 0 0 .656.655c.32.164.74.164 1.581.164h8.2c.84 0 1.26 0 1.581-.163a1.5 1.5 0 0 0 .655-.656c.164-.32.164-.74.164-1.581V9.494c0-.367 0-.55-.041-.723a1.503 1.503 0 0 0-.18-.433c-.093-.152-.223-.282-.482-.54Z"/>
    </symbol>

    <!-- ====== INFO ====== -->
    <symbol id="icon-slim-info" viewBox="0 0 24 24">
        <path stroke="currentColor" fill="none" stroke-linecap="round" d="M12 12v6m0-11V6m1.736 15.848a10.002 10.002 0 0 0 6.698-15.221 10 10 0 1 0-6.698 15.221Z"/>
    </symbol>

    <!-- ====== ALERT ====== -->
    <symbol id="icon-slim-alert" viewBox="0 0 24 24">
        <path stroke="currentColor" fill="none" d="M9.15 7.831a2.976 2.976 0 1 1 5.702 0l-1.563 5.211c-.07.234-.105.351-.16.447a1 1 0 0 1-.653.487C12.368 14 12.246 14 12 14c-.244 0-.366 0-.474-.024a1 1 0 0 1-.653-.487c-.055-.096-.09-.213-.16-.447L9.15 7.832ZM14.002 19a2 2 0 1 1-4 0 2 2 0 0 1 4 0Z"/>
    </symbol>

    <!-- ====== TRASH ====== -->
    <symbol id="icon-slim-trash" viewBox="0 0 24 24">
        <path fill="currentColor" stroke="none" d="M9 14.5a.5.5 0 0 0 1 0H9Zm1-3a.5.5 0 0 0-1 0h1Zm4 3a.5.5 0 0 0 1 0h-1Zm1-3a.5.5 0 0 0-1 0h1Zm3.389-4.663.278.416-.278-.416Zm-.552.552.416.278-.416-.278Zm-11.674 0-.416.278.416-.278Zm-.552-.552-.278.416.278-.416Zm8.442-3.113a.5.5 0 1 0 .894-.448l-.894.448Zm-5-.447a.5.5 0 0 0 .894.447l-.894-.447ZM10 14.5v-3H9v3h1Zm5 0v-3h-1v3h1ZM3 7h18V6H3v1Zm10.5 12h-3v1h3v-1ZM7 15.5V10H6v5.5h1ZM17 10v5.5h1V10h-1Zm4-4c-.692 0-1.248 0-1.694.045-.453.046-.847.144-1.195.376l.556.832c.156-.105.366-.175.74-.213C19.791 7 20.287 7 21 7V6Zm-3 4c0-.713 0-1.21.04-1.592.038-.375.108-.585.213-.741l-.832-.556c-.232.348-.33.742-.376 1.195C16.999 8.752 17 9.308 17 10h1Zm.111-3.579a2.5 2.5 0 0 0-.69.69l.832.556a1.5 1.5 0 0 1 .414-.414l-.556-.832ZM7 10c0-.692 0-1.248-.045-1.694-.046-.453-.144-.847-.376-1.195l-.832.556c.105.156.175.366.213.74C6 8.792 6 9.288 6 10h1ZM3 7c.713 0 1.21 0 1.592.04.375.038.585.108.741.213l.556-.832c-.348-.232-.742-.33-1.195-.376C4.248 5.999 3.692 6 3 6v1Zm3.579.111a2.5 2.5 0 0 0-.69-.69l-.556.832c.164.11.305.25.414.414l.832-.556ZM10.5 19c-.957 0-1.624-.001-2.128-.069-.49-.066-.748-.186-.933-.37l-.707.707c.402.401.907.574 1.507.654.586.08 1.332.078 2.261.078v-1ZM6 15.5c0 .929-.001 1.675.078 2.261.08.6.253 1.105.654 1.507l.707-.707c-.184-.185-.304-.444-.37-.933C7 17.124 7 16.457 7 15.5H6Zm7.5 4.5c.929 0 1.675.001 2.261-.078.6-.08 1.105-.253 1.507-.654l-.707-.707c-.185.184-.444.305-.933.37C15.124 19 14.457 19 13.5 19v1Zm3.5-4.5c0 .957-.001 1.624-.069 2.128-.066.49-.186.748-.37.933l.707.707c.401-.402.574-.907.654-1.507.08-.585.078-1.332.078-2.261h-1ZM12 3c.912 0 1.439.227 1.723.416.144.096.234.188.284.248a.655.655 0 0 1 .052.071l-.002-.003a.326.326 0 0 1-.004-.008L14.5 3.5l.447-.224v-.001l-.001-.002-.002-.003-.004-.008-.011-.02a1.648 1.648 0 0 0-.154-.219 2.315 2.315 0 0 0-.498-.439C13.811 2.274 13.087 2 12 2v1Zm-2.5.5a31.97 31.97 0 0 1 .447.225l-.001.001a.391.391 0 0 1-.003.006l-.002.003.005-.007a.655.655 0 0 1 .048-.064c.05-.06.14-.152.283-.248.284-.19.81-.416 1.723-.416V2c-1.088 0-1.811.273-2.277.584a2.327 2.327 0 0 0-.498.44 1.65 1.65 0 0 0-.169.246l-.002.004v.002L9.5 3.5Z"/>
    </symbol>

    <!-- ====== CALENDAR ====== -->
    <symbol id="icon-slim-calendar" viewBox="0 0 24 24">
        <path fill="currentColor" stroke="none" d="M3 10.5a.5.5 0 0 0 0 1v-1Zm18 1a.5.5 0 0 0 0-1v1Zm-12 4a.5.5 0 0 0 0 1v-1Zm6 1a.5.5 0 0 0 0-1v1ZM8.5 3a.5.5 0 0 0-1 0h1Zm-1 4a.5.5 0 0 0 1 0h-1Zm9-4a.5.5 0 0 0-1 0h1Zm-1 4a.5.5 0 0 0 1 0h-1ZM7 6.5h10v-1H7v1ZM20.5 10v7h1v-7h-1ZM17 20.5H7v1h10v-1ZM3.5 17v-7h-1v7h1ZM7 20.5c-.957 0-1.624-.001-2.128-.069-.49-.066-.748-.186-.933-.37l-.707.707c.402.401.907.574 1.507.654.586.08 1.332.078 2.261.078v-1ZM2.5 17c0 .929-.001 1.675.078 2.261.08.6.253 1.105.654 1.507l.707-.707c-.184-.185-.304-.444-.37-.933C3.5 18.624 3.5 17.957 3.5 17h-1Zm18 0c0 .957-.001 1.624-.069 2.128-.066.49-.186.748-.37.933l.707.707c.401-.402.574-.907.654-1.507.08-.585.078-1.332.078-2.261h-1ZM17 21.5c.929 0 1.675.001 2.261-.078.6-.08 1.105-.253 1.507-.654l-.707-.707c-.185.184-.444.305-.933.37-.504.068-1.171.069-2.128.069v1Zm0-15c.957 0 1.624.001 2.128.069.49.066.748.186.933.37l.707-.707c-.402-.401-.907-.574-1.507-.654C18.676 5.498 17.93 5.5 17 5.5v1Zm4.5 3.5c0-.929.001-1.675-.078-2.261-.08-.6-.253-1.105-.654-1.507l-.707.707c.184.185.305.444.37.933.068.504.069 1.171.069 2.128h1ZM7 5.5c-.929 0-1.675-.001-2.261.078-.6.08-1.105.253-1.507.654l.707.707c.185-.184.444-.304.933-.37C5.376 6.5 6.043 6.5 7 6.5v-1ZM3.5 10c0-.957.001-1.624.069-2.128.066-.49.186-.748.37-.933l-.707-.707c-.401.402-.574.907-.654 1.507C2.498 8.325 2.5 9.07 2.5 10h1ZM3 11.5h18v-1H3v1Zm6 5h6v-1H9v1ZM7.5 3v4h1V3h-1Zm8 0v4h1V3h-1Z"/>
    </symbol>

    <!-- ====== CLOCK ====== -->
    <symbol id="icon-slim-clock" viewBox="0 0 24 24">
        <path stroke="currentColor" fill="none" stroke-linecap="round" d="M17.625 12h-5.313a.312.312 0 0 1-.312-.313V7.625M22 12c0 5.523-4.477 10-10 10S2 17.523 2 12 6.477 2 12 2s10 4.477 10 10Z"/>
    </symbol>

    <!-- ====== SHARE ====== -->
    <symbol id="icon-slim-share" viewBox="0 0 24 24">
        <path fill="currentColor" stroke="none" d="M20.5 3.5h.5V3h-.5v.5Zm-9 2.5a.5.5 0 0 0 0-1v1Zm7.5 6.5a.5.5 0 0 0-1 0h1ZM15 4h5.5V3H15v1Zm5-.5V9h1V3.5h-1Zm.146-.354-8 8 .708.708 8-8-.708-.708ZM5 7.5v9h1v-9H5ZM7.5 19h9v-1h-9v1Zm4-14h-4v1h4V5ZM19 16.5v-4h-1v4h1ZM16.5 19a2.5 2.5 0 0 0 2.5-2.5h-1a1.5 1.5 0 0 1-1.5 1.5v1ZM5 16.5A2.5 2.5 0 0 0 7.5 19v-1A1.5 1.5 0 0 1 6 16.5H5Zm1-9A1.5 1.5 0 0 1 7.5 6V5A2.5 2.5 0 0 0 5 7.5h1Z"/>
    </symbol>

    <!-- ====== LOCK ====== -->
    <symbol id="icon-slim-lock" viewBox="0 0 24 24">
        <path stroke="currentColor" fill="none" stroke-linecap="round" d="M16.5 9.5V8a4.5 4.5 0 1 0-9 0v1.5M14 15a2 2 0 1 1-4 0 2 2 0 0 1 4 0Zm-3.5 5.5h3c2.828 0 4.243 0 5.121-.879.879-.878.879-2.293.879-5.121v-1c0-1.886 0-2.828-.586-3.414C18.328 9.5 17.386 9.5 15.5 9.5h-7c-1.886 0-2.828 0-3.414.586-.586.586-.586 1.528-.586 3.414v1c0 2.828 0 4.243.879 5.121.878.879 2.293.879 5.121.879Z"/>
    </symbol>

    <!-- ====== STAR ====== -->
    <symbol id="icon-slim-star" viewBox="0 0 24 24">
        <path stroke="currentColor" fill="none" d="M10.144 6.628c.787-1.961 1.18-2.942 1.857-2.942.676 0 1.07.98 1.856 2.942l.036.09c.445 1.109.667 1.663 1.12 2 .453.336 1.047.39 2.236.496l.215.019c1.946.174 2.919.261 3.127.88.208.62-.514 1.277-1.96 2.591l-.482.44c-.731.665-1.097.997-1.268 1.434a1.997 1.997 0 0 0-.079.25c-.112.454-.005.937.21 1.902l.066.3c.394 1.775.59 2.662.247 3.045a1 1 0 0 1-.48.296c-.497.136-1.201-.438-2.61-1.587-.925-.753-1.388-1.13-1.92-1.215a1.997 1.997 0 0 0-.63 0c-.53.085-.994.462-1.919 1.215-1.409 1.149-2.113 1.723-2.61 1.587a1 1 0 0 1-.48-.296c-.344-.383-.147-1.27.247-3.044l.066-.301c.215-.966.322-1.448.21-1.903a1.997 1.997 0 0 0-.08-.25c-.17-.436-.536-.768-1.267-1.434l-.482-.439c-1.445-1.314-2.168-1.972-1.96-2.59.208-.62 1.181-.707 3.127-.881l.215-.02c1.189-.106 1.783-.159 2.236-.496.453-.336.675-.89 1.12-1.998l.036-.091Z"/>
    </symbol>

    <!-- ====== EYE-OFF ====== -->
    <symbol id="icon-slim-eye-off" viewBox="0 0 24 24">
        <path fill="currentColor" stroke="none" d="m3.812 13.066.386-.318-.386.318Zm0-2.132.386.318-.386-.318Zm16.376 2.132-.386-.318.386.318Zm0-2.132-.386.318.386-.318ZM20.77 12h.5-.5Zm-5.27 0a3.5 3.5 0 0 1-3.5 3.5v1a4.5 4.5 0 0 0 4.5-4.5h-1ZM12 15.5A3.5 3.5 0 0 1 8.5 12h-1a4.5 4.5 0 0 0 4.5 4.5v-1ZM8.5 12A3.5 3.5 0 0 1 12 8.5v-1A4.5 4.5 0 0 0 7.5 12h1ZM12 8.5a3.5 3.5 0 0 1 3.5 3.5h1A4.5 4.5 0 0 0 12 7.5v1Zm7.802 4.248c-.695.844-1.802 2.042-3.17 3.026-1.37.986-2.96 1.726-4.632 1.726v1c1.964 0 3.758-.865 5.217-1.915 1.463-1.052 2.632-2.321 3.357-3.201l-.772-.636ZM12 17.5c-1.672 0-3.262-.74-4.633-1.726-1.367-.984-2.474-2.182-3.17-3.026l-.771.636c.725.88 1.894 2.149 3.357 3.201C8.243 17.635 10.036 18.5 12 18.5v-1Zm-7.802-6.248C4.893 10.408 6 9.21 7.368 8.226 8.737 7.24 10.327 6.5 12 6.5v-1c-1.964 0-3.758.865-5.217 1.915-1.463 1.052-2.632 2.321-3.357 3.201l.772.636ZM12 6.5c1.672 0 3.262.74 4.633 1.726 1.367.984 2.474 2.182 3.17 3.026l.771-.636c-.725-.88-1.894-2.149-3.357-3.201C15.757 6.365 13.964 5.5 12 5.5v1Zm-7.802 6.248c-.424-.515-.468-.604-.468-.748h-1c0 .574.344.956.696 1.384l.772-.636Zm-.772-2.132c-.352.428-.696.81-.696 1.384h1c0-.143.044-.233.468-.748l-.772-.636Zm17.148 2.768c.352-.428.696-.81.696-1.384h-1c0 .143-.043.233-.468.748l.772.636Zm-.772-2.132c.425.515.468.604.468.748h1c0-.574-.344-.956-.696-1.384l-.772.636ZM2.646 2.354l18 18 .708-.708-18-18-.708.708Z"/>
    </symbol>

    <!-- ====== CHART ====== -->
    <symbol id="icon-slim-chart" viewBox="0 0 24 24">
        <path fill="currentColor" stroke="none" d="M8.5 10a.5.5 0 0 0-1 0h1Zm-1 6a.5.5 0 0 0 1 0h-1Zm5-4a.5.5 0 0 0-1 0h1Zm-1 4a.5.5 0 0 0 1 0h-1Zm5-8a.5.5 0 0 0-1 0h1Zm-1 8a.5.5 0 0 0 1 0h-1Zm-8-6v6h1v-6h-1Zm4 2v4h1v-4h-1Zm4-4v8h1V8h-1ZM7 4.5h10v-1H7v1ZM20.5 8v8h1V8h-1ZM17 19.5H7v1h10v-1ZM3.5 16V8h-1v8h1ZM7 19.5c-.957 0-1.624-.001-2.128-.069-.49-.066-.748-.186-.933-.37l-.707.707c.402.401.907.574 1.507.654.586.08 1.332.078 2.261.078v-1ZM2.5 16c0 .929-.001 1.675.078 2.261.08.6.253 1.105.654 1.507l.707-.707c-.184-.185-.304-.444-.37-.933C3.5 17.624 3.5 16.957 3.5 16h-1Zm18 0c0 .957-.001 1.624-.069 2.128-.066.49-.186.748-.37.933l.707.707c.401-.402.574-.907.654-1.507.08-.585.078-1.332.078-2.261h-1ZM17 20.5c.929 0 1.675.001 2.261-.078.6-.08 1.105-.253 1.507-.654l-.707-.707c-.185.184-.444.305-.933.37-.504.068-1.171.069-2.128.069v1Zm0-16c.957 0 1.624.001 2.128.069.49.066.748.186.933.37l.707-.707c-.402-.401-.907-.574-1.507-.654C18.676 3.498 17.93 3.5 17 3.5v1ZM21.5 8c0-.929.001-1.675-.078-2.261-.08-.6-.253-1.105-.654-1.507l-.707.707c.184.185.305.444.37.933.068.504.069 1.171.069 2.128h1ZM7 3.5c-.929 0-1.675-.001-2.261.078-.6.08-1.105.253-1.507.654l.707.707c.185-.184.444-.304.933-.37C5.376 4.5 6.043 4.5 7 4.5v-1ZM3.5 8c0-.957.001-1.624.069-2.128.066-.49.186-.748.37-.933l-.707-.707c-.401.402-.574.907-.654 1.507C2.498 6.325 2.5 7.07 2.5 8h1Z"/>
    </symbol>

    <!-- ====== MESSAGE ====== -->
    <symbol id="icon-slim-message" viewBox="0 0 24 24">
        <path fill="currentColor" stroke="none" d="M9 9.5a.5.5 0 0 0 0 1v-1Zm6 1a.5.5 0 0 0 0-1v1Zm-6 3a.5.5 0 0 0 0 1v-1Zm3 1a.5.5 0 0 0 0-1v1ZM3.5 12v6h1v-6h-1ZM6 20.5h6v-1H6v1Zm6 0c1.871 0 3.325.001 4.456-.15 1.144-.155 2.032-.474 2.726-1.168l-.707-.707c-.478.477-1.119.744-2.152.883-1.049.14-2.423.142-4.323.142v1Zm7.5-8.5c0 1.9-.001 3.274-.142 4.323-.139 1.033-.406 1.674-.883 2.152l.707.707c.694-.694 1.013-1.582 1.167-2.726.152-1.13.151-2.585.151-4.456h-1Zm-16 6c0 .457-.001.85.041 1.164.044.328.144.642.398.897l.707-.707c-.038-.038-.085-.107-.114-.323-.03-.232-.032-.546-.032-1.031h-1ZM6 19.5c-.486 0-.8-.001-1.03-.032-.218-.03-.285-.076-.324-.114l-.707.707c.255.255.57.354.897.398.313.042.707.041 1.164.041v-1Zm6-16c-1.871 0-3.325-.001-4.456.15-1.144.155-2.032.474-2.726 1.168l.707.707c.478-.477 1.119-.744 2.153-.883C8.726 4.502 10.1 4.5 12 4.5v-1ZM4.5 12c0-1.9.001-3.274.142-4.322.139-1.034.406-1.675.883-2.153l-.707-.707c-.694.694-1.013 1.582-1.167 2.726C3.499 8.674 3.5 10.13 3.5 12h1ZM12 4.5c1.9 0 3.274.001 4.323.142 1.033.139 1.674.406 2.152.883l.707-.707c-.694-.694-1.582-1.013-2.726-1.167C15.326 3.499 13.87 3.5 12 3.5v1Zm8.5 7.5c0-1.871.001-3.325-.15-4.456-.155-1.144-.474-2.032-1.168-2.726l-.707.707c.477.478.744 1.119.883 2.153.14 1.048.142 2.422.142 4.322h1ZM9 10.5h6v-1H9v1Zm0 4h3v-1H9v1Z"/>
    </symbol>

    <!-- ====== MESSAGE PLUS ====== -->
    <symbol id="icon-slim-message-plus" viewBox="0 0 24 24">
        <path fill="currentColor" stroke="none" d="m17.758 17.897-.345-.362.345.362Zm1.742-6.772a.5.5 0 0 0-1 0h1Zm-1.603 6.633-.362-.345.362.345ZM6.103 6.242l.362.345-.362-.345Zm6.772-.742a.5.5 0 0 0 0-1v1Zm-6.633.603.345.362-.345-.362ZM9 9.5a.5.5 0 0 0 0 1v-1Zm6 1a.5.5 0 0 0 0-1v1Zm-6 3a.5.5 0 0 0 0 1v-1Zm3 1a.5.5 0 0 0 0-1v1ZM18.5 8a.5.5 0 0 0 1 0h-1Zm1-6a.5.5 0 0 0-1 0h1ZM16 4.5a.5.5 0 0 0 0 1v-1Zm6 1a.5.5 0 0 0 0-1v1ZM4.5 12.875V17h1v-4.125h-1ZM7 19.5h4.125v-1H7v1Zm4.125 0c1.811 0 3.218.001 4.315-.142 1.111-.145 1.976-.445 2.663-1.099l-.69-.724c-.471.449-1.098.7-2.102.831-1.017.133-2.348.134-4.186.134v1Zm7.375-8.375c0 1.838-.001 3.169-.134 4.186-.13 1.004-.382 1.63-.831 2.102l.724.69c.654-.687.954-1.552 1.099-2.663.143-1.097.142-2.504.142-4.315h-1Zm-.397 7.134a4.59 4.59 0 0 0 .156-.156l-.724-.69a3.48 3.48 0 0 1-.122.122l.69.724ZM4.5 17c0 .457-.001.85.041 1.164.044.328.144.642.398.897l.707-.707c-.038-.038-.085-.107-.114-.323-.03-.232-.032-.546-.032-1.031h-1ZM7 18.5c-.486 0-.8-.001-1.03-.032-.218-.03-.285-.076-.324-.114l-.707.707c.255.255.57.354.897.398.313.042.707.041 1.164.041v-1Zm-1.5-5.625c0-1.838.001-3.169.134-4.186.13-1.004.382-1.63.831-2.102l-.724-.69c-.654.687-.954 1.552-1.099 2.663C4.5 9.657 4.5 11.064 4.5 12.875h1ZM12.875 4.5c-1.811 0-3.218-.001-4.315.142-1.111.145-1.976.445-2.663 1.099l.69.724c.471-.449 1.098-.7 2.102-.831C9.706 5.5 11.037 5.5 12.875 5.5v-1Zm-6.41 2.087c.04-.042.08-.082.122-.122l-.69-.724a4.59 4.59 0 0 0-.156.156l.724.69ZM9 10.5h6v-1H9v1Zm0 4h3v-1H9v1ZM19.5 8V5h-1v3h1Zm0-3V2h-1v3h1Zm-3.5.5h3v-1h-3v1Zm3 0h3v-1h-3v1Z"/>
    </symbol>

    <!-- ====== SORT ====== -->
    <symbol id="icon-slim-sort" viewBox="0 0 24 24">
        <path fill="currentColor" stroke="none" d="m8 2 .354-.354L8 1.293l-.354.353L8 2Zm-.5 15a.5.5 0 0 0 1 0h-1Zm8.5 5-.354.354.354.353.354-.353L16 22Zm.5-15a.5.5 0 0 0-1 0h1ZM4.354 6.354l4-4-.708-.708-4 4 .708.708Zm3.292-4 4 4 .708-.708-4-4-.708.708ZM7.5 2v15h1V2h-1Zm4.146 16.354 4 4 .708-.708-4-4-.708.708Zm4.708 4 4-4-.708-.708-4 4 .708.708ZM16.5 22V7h-1v15h1Z"/>
    </symbol>

    <!-- ====== SIGN OUT ====== -->
    <symbol id="icon-slim-sign-out" viewBox="0 0 24 24">
        <path fill="currentColor" stroke="none" d="m2 12-.39-.312-.25.312.25.312L2 12Zm9 .5a.5.5 0 0 0 0-1v1Zm2.342-9.057-.082-.493.082.493Zm1.672-.279.082.494-.082-.494Zm0 17.672.082-.494-.082.494Zm-1.672-.279-.082.493.082-.493Zm-2.868-.958.381-.324-.381.324Zm10.465 1.149.323.381-.323-.381Zm0-17.496.323-.381-.323.381Zm-10.465 1.15-.382-.324.382.323ZM5.61 6.687l-4 5 .78.624 4-5-.78-.624Zm-4 5.624 4 5 .78-.624-4-5-.78.624ZM2 12.5h9v-1H2v1Zm11.425-8.564 1.67-.278-.164-.987-1.67.279.164.986ZM21.5 9.083v5.834h1V9.083h-1Zm-6.404 11.26-1.671-.28-.165.987 1.671.279.165-.987ZM10.5 8.131v-.744h-1v.744h1Zm0 8.48v-.546h-1v.546h1Zm2.925 3.452c-.811-.135-1.373-.23-1.795-.355-.408-.122-.624-.256-.775-.434l-.763.647c.324.381.744.594 1.253.745.495.147 1.13.252 1.915.383l.165-.986ZM9.5 16.61c0 .797 0 1.44.063 1.953.066.526.206.976.53 1.358l.762-.647c-.15-.177-.247-.412-.3-.835-.054-.436-.055-1.007-.055-1.829h-1Zm12-1.694c0 1.66-.001 2.85-.128 3.741-.124.877-.359 1.372-.756 1.708l.646.763c.664-.562.96-1.339 1.1-2.33.14-.978.138-2.253.138-3.882h-1Zm-6.569 6.412c1.607.267 2.865.478 3.852.502 1 .024 1.816-.14 2.48-.702l-.647-.763c-.397.337-.924.487-1.81.465-.899-.021-2.074-.216-3.71-.489l-.165.987Zm.165-17.671c1.636-.273 2.811-.468 3.71-.49.886-.02 1.413.13 1.81.466l.646-.763c-.663-.562-1.478-.726-2.48-.702-.986.024-2.244.234-3.85.502l.164.987ZM22.5 9.083c0-1.629.001-2.904-.138-3.882-.14-.991-.436-1.768-1.1-2.33l-.646.763c.397.336.632.83.756 1.708.127.89.128 2.082.128 3.74h1ZM13.26 2.95c-.785.13-1.42.236-1.915.383-.509.151-.93.363-1.253.745l.763.647c.15-.178.367-.312.775-.434.421-.125.984-.22 1.795-.355l-.165-.986ZM10.5 7.388c0-.822 0-1.392.055-1.828.053-.423.15-.658.3-.835l-.763-.647c-.323.382-.463.831-.529 1.358C9.5 5.949 9.5 6.592 9.5 7.388h1Z"/>
    </symbol>

    <!-- ====== SIGN IN ====== -->
    <symbol id="icon-slim-sign-in" viewBox="0 0 24 24">
        <path fill="currentColor" stroke="none" d="m11.566 2.652-.071.495.07-.495Zm4.282.612-.07.495.07-.495Zm0 17.472-.07-.495.07.495Zm-4.282.612-.071-.495.07.495Zm-3.876-.143-.328.378.328-.378Zm12.576-1.841.378.327-.378-.327Zm0-14.728.378-.327-.378.327ZM16 12l.39.312.25-.312-.25-.312L16 12Zm-12-.5a.5.5 0 1 0 0 1v-1Zm7.495-8.353 4.283.612.141-.99-4.283-.612-.141.99ZM20.5 9.204v5.592h1V9.204h-1ZM15.778 20.24l-4.283.612.141.99 4.283-.612-.141-.99ZM7.5 7.13v-.519h-1v.52h1Zm0 10.257v-.322h-1v.322h1Zm3.995 3.465c-1.077.154-1.833.26-2.406.261-.56.001-.857-.1-1.072-.287l-.655.756c.474.411 1.054.533 1.729.531.66 0 1.498-.122 2.545-.271l-.141-.99ZM6.5 17.388c0 1.058-.001 1.904.091 2.559.094.668.297 1.224.771 1.636l.655-.756c-.215-.187-.358-.466-.436-1.02-.08-.568-.081-1.331-.081-2.42h-1Zm14-2.592c0 1.254 0 2.147-.088 2.835-.085.673-.246 1.085-.523 1.405l.755.655c.456-.526.662-1.157.76-1.935.097-.765.096-1.732.096-2.96h-1Zm-4.58 6.435c1.214-.174 2.172-.31 2.916-.513.756-.208 1.352-.5 1.808-1.027l-.755-.655c-.278.32-.663.538-1.318.717-.668.183-1.552.31-2.793.488l.141.99Zm-.142-17.472c1.24.177 2.125.305 2.793.488.655.18 1.04.397 1.318.717l.755-.655c-.456-.526-1.052-.82-1.808-1.027-.744-.203-1.702-.34-2.917-.513l-.141.99ZM21.5 9.204c0-1.228 0-2.195-.096-2.96-.098-.778-.304-1.41-.76-1.935l-.755.655c.277.32.438.732.523 1.405.087.688.088 1.581.088 2.835h1Zm-9.864-7.047c-1.047-.15-1.885-.27-2.545-.271-.675-.002-1.255.12-1.729.531l.655.756c.215-.187.512-.288 1.072-.287.573 0 1.329.107 2.406.261l.141-.99ZM7.5 6.612c0-1.088.001-1.85.081-2.42.078-.553.221-.833.436-1.02l-.655-.755c-.474.412-.677.968-.77 1.636-.093.655-.092 1.501-.092 2.559h1Zm4.11.7 4 5 .78-.624-4-5-.78.624Zm4 4.376-4 5 .78.624 4-5-.78-.624ZM16 11.5H4v1h12v-1Z"/>
    </symbol>

    <!-- ====== WALLET ====== -->
    <symbol id="icon-slim-wallet" viewBox="0 0 24 24">
        <path stroke="currentColor" fill="none" d="M4.5 6.5v9c0 1.886 0 2.828.586 3.414.586.586 1.528.586 3.414.586h9c.943 0 1.414 0 1.707-.293.293-.293.293-.764.293-1.707v-1m-15-10a2 2 0 0 0 2 2h8.571M4.5 6.5a2 2 0 0 1 2-2h11.429c.066 0 .1 0 .127.003a.5.5 0 0 1 .44.441.985.985 0 0 1 .004.127c0 .398 0 .597-.019.765a3 3 0 0 1-2.645 2.645c-.168.019-.367.019-.765.019m0 0H17.5c.943 0 1.414 0 1.707.293.293.293.293.764.293 1.707v2m0 4h-2c-.943 0-1.414 0-1.707-.293-.293-.293-.293-.764-.293-1.707 0-.943 0-1.414.293-1.707.293-.293.764-.293 1.707-.293h2m0 4v-4"/>
    </symbol>

    <!-- ====== CARDS ====== -->
    <symbol id="icon-slim-cards" viewBox="0 0 24 24">
        <path stroke="currentColor" fill="none" stroke-linecap="round" d="M3 5c0-.943 0-1.414.293-1.707C3.586 3 4.057 3 5 3h3c.943 0 1.414 0 1.707.293C10 3.586 10 4.057 10 5v3c0 .943 0 1.414-.293 1.707C9.414 10 8.943 10 8 10H5c-.943 0-1.414 0-1.707-.293C3 9.414 3 8.943 3 8V5Zm0 11c0-.943 0-1.414.293-1.707C3.586 14 4.057 14 5 14h3c.943 0 1.414 0 1.707.293.293.293.293.764.293 1.707v3c0 .943 0 1.414-.293 1.707C9.414 21 8.943 21 8 21H5c-.943 0-1.414 0-1.707-.293C3 20.414 3 19.943 3 19v-3ZM14 5c0-.943 0-1.414.293-1.707C14.586 3 15.057 3 16 3h3c.943 0 1.414 0 1.707.293C21 3.586 21 4.057 21 5v3c0 .943 0 1.414-.293 1.707C20.414 10 19.943 10 19 10h-3c-.943 0-1.414 0-1.707-.293C14 9.414 14 8.943 14 8V5Zm0 11c0-.943 0-1.414.293-1.707C14.586 14 15.057 14 16 14h3c.943 0 1.414 0 1.707.293.293.293.293.764.293 1.707v3c0 .943 0 1.414-.293 1.707C20.414 21 19.943 21 19 21h-3c-.943 0-1.414 0-1.707-.293C14 20.414 14 19.943 14 19v-3Z"/>
    </symbol>

    <!-- ====== UPLOAD ====== -->
    <symbol id="icon-slim-upload" viewBox="0 0 24 24">
        <path fill="currentColor" stroke="none" d="m12 5 .354-.354L12 4.293l-.354.353L12 5Zm-.5 9a.5.5 0 0 0 1 0h-1ZM7 19v-.5.5Zm10 0v.5-.5Zm-9.646-8.646 5-5-.708-.708-5 5 .708.708Zm4.292-5 5 5 .708-.708-5-5-.708.708ZM11.5 5v9h1V5h-1ZM7 19.5h10v-1H7v1ZM5.5 17v-1h-1v1h1Zm14 0v-1h-1v1h1ZM17 19.5a2.5 2.5 0 0 0 2.5-2.5h-1a1.5 1.5 0 0 1-1.5 1.5v1Zm-10-1A1.5 1.5 0 0 1 5.5 17h-1A2.5 2.5 0 0 0 7 19.5v-1Z"/>
    </symbol>

    <!-- ====== LIST ====== -->
    <symbol id="icon-slim-list" viewBox="0 0 24 24">
        <path fill="currentColor" stroke="none" d="M19.5 7a.5.5 0 1 1-1 0 .5.5 0 0 1 1 0Zm0 5a.5.5 0 1 1-1 0 .5.5 0 0 1 1 0Zm0 5a.5.5 0 1 1-1 0 .5.5 0 0 1 1 0Z"/>
        <path stroke="currentColor" fill="none" stroke-linecap="round" d="M5 12h10M5 7h10M5 17h10m4.5-10a.5.5 0 1 1-1 0 .5.5 0 0 1 1 0Zm0 5a.5.5 0 1 1-1 0 .5.5 0 0 1 1 0Zm0 5a.5.5 0 1 1-1 0 .5.5 0 0 1 1 0Z"/>
    </symbol>

    <!-- ====== MENU ====== -->
    <symbol id="icon-slim-menu" viewBox="0 0 24 24">
        <path stroke="currentColor" fill="none" stroke-linecap="round" d="M5 7h14M5 12h14M5 17h14"/>
    </symbol>

    <!-- ====== MENU DOTS ====== -->
    <symbol id="icon-slim-menu-dots" viewBox="0 0 24 24">
        <path stroke="currentColor" fill="none" stroke-linecap="round" stroke-linejoin="round" d="M11.5 11.5a.5.5 0 1 0 1 0 .5.5 0 0 0-1 0Zm6.5 0a.5.5 0 1 0 1 0 .5.5 0 0 0-1 0Zm-13 0a.5.5 0 1 0 1 0 .5.5 0 0 0-1 0Z"/>
    </symbol>

    <!-- ====== PLUS ====== -->
    <symbol id="icon-slim-plus" viewBox="0 0 24 24">
        <path stroke="currentColor" fill="none" stroke-linecap="round" d="M4.5 12h15m-7.498 7.5v-15"/>
    </symbol>

    <!-- ====== MINUS ====== -->
    <symbol id="icon-slim-minus" viewBox="0 0 24 24">
        <path stroke="currentColor" fill="none" stroke-linecap="round" d="M4.5 12h15"/>
    </symbol>

    <!-- ***********************************
    * CHEVRONS
    **************************************** -->
    <symbol id="icon-slim-chevron-down" viewBox="0 0 24 24">
        <path stroke="currentColor" fill="none" d="m18 9-6 6-6-6"/>
    </symbol>

    <symbol id="icon-slim-chevron-up" viewBox="0 0 24 24">
        <path stroke="currentColor" fill="none" d="m18 15-6-6-6 6"/>
    </symbol>

    <symbol id="icon-slim-chevron-right" viewBox="0 0 24 24">
        <path stroke="currentColor" fill="none" d="m9 6 6 6-6 6"/>
    </symbol>

    <symbol id="icon-slim-chevron-left" viewBox="0 0 24 24">
        <path stroke="currentColor" fill="none" d="m15 6-6 6 6 6"/>
    </symbol>

    <!-- ***********************************
    * ARROWS
    **************************************** -->
    <symbol id="icon-slim-arrow-down" viewBox="0 0 24 24">
        <path fill="currentColor" stroke="none" d="m12 20-.354.354.354.353.354-.353L12 20Zm.5-15a.5.5 0 0 0-1 0h1Zm-6.854 9.354 6 6 .708-.708-6-6-.708.708Zm6.708 6 6-6-.708-.708-6 6 .708.708ZM12.5 20V5h-1v15h1Z"/>
    </symbol>

    <symbol id="icon-slim-arrow-up" viewBox="0 0 24 24">
        <path fill="currentColor" stroke="none" d="m12 4 .354-.354L12 3.293l-.354.353L12 4Zm-.5 15a.5.5 0 0 0 1 0h-1Zm-5.146-8.646 6-6-.708-.708-6 6 .708.708Zm5.292-6 6 6 .708-.708-6-6-.708.708ZM11.5 4v15h1V4h-1Z"/>
    </symbol>

    <symbol id="icon-slim-arrow-right" viewBox="0 0 24 24">
        <path fill="currentColor" stroke="none" d="m20 12 .354.354.353-.354-.353-.354L20 12Zm-15-.5a.5.5 0 0 0 0 1v-1Zm8.646-5.146 6 6 .708-.708-6-6-.708.708Zm6 5.292-6 6 .708.708 6-6-.708-.708ZM20 11.5H5v1h15v-1Z"/>
    </symbol>

    <symbol id="icon-slim-arrow-left" viewBox="0 0 24 24">
        <path fill="currentColor" stroke="none" d="m4 12-.354-.354-.353.354.353.354L4 12Zm15 .5a.5.5 0 0 0 0-1v1ZM9.646 5.646l-6 6 .708.708 6-6-.708-.708Zm-6 6.708 6 6 .708-.708-6-6-.708.708ZM4 12.5h15v-1H4v1Z"/>
    </symbol>
</svg>