<svg xmlns="http://www.w3.org/2000/svg" style="display: none;">
    <!-- ====== TRUE ====== -->
    <symbol id="icon-true" viewBox="0 0 24 24">
        <path stroke="currentColor" fill="none" stroke-linecap="round" stroke-linejoin="round" stroke-width="2" d="m5 12 5 5 9-9"/>
    </symbol>

    <!-- ====== CLOSE ====== -->
    <symbol id="icon-close" viewBox="0 0 24 24">
        <path stroke="currentColor" fill="none" stroke-linecap="round" stroke-width="2" d="m5 19 7-7m0 0 7-7m-7 7L5 5m7 7 7 7"/>
    </symbol>

    <!-- ====== PLAY ====== -->
    <symbol id="icon-play" viewBox="0 0 24 24">
        <path stroke="currentColor" fill="none" stroke-linecap="round" stroke-linejoin="round" stroke-width="2" d="M7 4.99c0-.972 0-1.457.202-1.725a1 1 0 0 1 .738-.395c.335-.02.74.25 1.548.788l10.515 7.01c.668.446 1.002.668 1.118.949a1 1 0 0 1 0 .766c-.116.28-.45.503-1.118.948l-10.515 7.01c-.809.54-1.213.809-1.548.789a1 1 0 0 1-.738-.395C7 20.467 7 19.98 7 19.01V4.99Z"/>
    </symbol>

    <!-- ====== HOME ====== -->
    <symbol id="icon-home" viewBox="0 0 24 24">
        <path stroke="currentColor" fill="none" stroke-linecap="round" stroke-linejoin="round" stroke-width="2" d="M9 21v-7.4c0-.56 0-.84.109-1.054a1 1 0 0 1 .437-.437C9.76 12 10.04 12 10.6 12h2.8c.56 0 .84 0 1.054.11a1 1 0 0 1 .437.436C15 12.76 15 13.04 15 13.6V21M11.018 2.764 4.235 8.04c-.453.353-.68.53-.843.75a2 2 0 0 0-.318.65C3 9.704 3 9.991 3 10.565V17.8c0 1.12 0 1.68.218 2.108a2 2 0 0 0 .874.874C4.52 21 5.08 21 6.2 21h11.6c1.12 0 1.68 0 2.108-.218a2 2 0 0 0 .874-.874C21 19.48 21 18.92 21 17.8v-7.235c0-.574 0-.861-.074-1.126a2.002 2.002 0 0 0-.318-.65c-.163-.22-.39-.397-.843-.75l-6.783-5.275c-.351-.273-.527-.41-.72-.462a1 1 0 0 0-.523 0c-.194.052-.37.189-.721.462Z"/>
    </symbol>

    <!-- ====== PHONE ====== -->
    <symbol id="icon-phone" viewBox="0 0 24 24">
        <path stroke="currentColor" fill="none" stroke-linecap="round" stroke-linejoin="round" stroke-width="2" d="M14.05 6A5 5 0 0 1 18 9.95M14.05 2A9 9 0 0 1 22 9.94m-11.773 3.923a14.604 14.604 0 0 1-2.847-4.01 1.698 1.698 0 0 1-.113-.266 1.046 1.046 0 0 1 .147-.862c.048-.067.105-.124.22-.238.35-.35.524-.524.638-.7a2 2 0 0 0 0-2.18c-.114-.176-.289-.351-.638-.7l-.195-.196c-.532-.531-.797-.797-1.083-.941a2 2 0 0 0-1.805 0c-.285.144-.551.41-1.083.941l-.157.158c-.53.53-.795.794-.997 1.154-.224.4-.386 1.02-.384 1.479 0 .413.081.695.241 1.26a19.038 19.038 0 0 0 4.874 8.283 19.039 19.039 0 0 0 8.283 4.873c.565.16.847.24 1.26.242a3.377 3.377 0 0 0 1.478-.384c.36-.203.625-.468 1.155-.997l.157-.158c.532-.531.797-.797.942-1.082a2 2 0 0 0 0-1.806c-.145-.285-.41-.55-.942-1.082l-.195-.195c-.35-.35-.524-.524-.7-.639a2 2 0 0 0-2.18 0c-.176.114-.35.29-.7.639-.115.114-.172.171-.239.22-.237.17-.581.228-.862.146a1.695 1.695 0 0 1-.266-.113 14.605 14.605 0 0 1-4.01-2.846Z"/>
    </symbol>

    <!-- ====== MAIL ====== -->
    <symbol id="icon-mail" viewBox="0 0 24 24">
        <path stroke="currentColor" fill="none" stroke-linecap="round" stroke-linejoin="round" stroke-width="2" d="m13.744 2.633 7.528 4.894c.266.173.399.259.495.374a1 1 0 0 1 .189.348c.044.143.044.302.044.62v7.33c0 1.681 0 2.521-.327 3.163a3 3 0 0 1-1.311 1.31C19.72 21 18.88 21 17.2 21H6.8c-1.68 0-2.52 0-3.162-.327a3 3 0 0 1-1.311-1.311C2 18.72 2 17.88 2 16.2V8.868c0-.317 0-.476.044-.62a1 1 0 0 1 .189-.347c.096-.115.229-.201.495-.374l7.528-4.894m3.488 0c-.631-.41-.947-.615-1.287-.695a2 2 0 0 0-.914 0c-.34.08-.656.285-1.287.695m3.488 0 7.224 4.696c.344.224.516.335.576.477a.5.5 0 0 1 0 .388c-.06.141-.232.253-.576.477l-7.224 4.695c-.631.41-.947.616-1.287.696-.3.07-.613.07-.914 0-.34-.08-.656-.285-1.287-.696L3.032 8.671c-.344-.224-.516-.336-.576-.477a.5.5 0 0 1 0-.388c.06-.142.232-.253.576-.477l7.224-4.696"/>
    </symbol>

    <!-- ====== MARKER ====== -->
    <symbol id="icon-marker" viewBox="0 0 24 24">
        <path stroke="currentColor" fill="none" stroke-linecap="round" stroke-linejoin="round" stroke-width="2" d="M12 13a3 3 0 1 0 0-6 3 3 0 0 0 0 6Z"/>
        <path stroke="currentColor" fill="none" stroke-linecap="round" stroke-linejoin="round" stroke-width="2" d="M12 22c4-4 8-7.582 8-12a8 8 0 1 0-16 0c0 4.418 4 8 8 12Z"/>
    </symbol>

    <!-- ====== PAPERCLIP ====== -->
    <symbol id="icon-paperclip" viewBox="0 0 24 24">
        <path stroke="currentColor" fill="none" stroke-linecap="round" stroke-linejoin="round" stroke-width="2" d="m21.154 10.9-9.016 9.015a5.25 5.25 0 0 1-7.425-7.425l9.016-9.015a3.5 3.5 0 1 1 4.95 4.95l-8.662 8.662a1.75 1.75 0 1 1-2.475-2.475l7.601-7.602"/>
    </symbol>

    <!-- ====== DOWNLOAD ====== -->
    <symbol id="icon-download" viewBox="0 0 24 24">
        <path stroke="currentColor" fill="none" stroke-linecap="round" stroke-linejoin="round" stroke-width="2" d="M21 15v1.2c0 1.68 0 2.52-.327 3.162a3 3 0 0 1-1.311 1.311C18.72 21 17.88 21 16.2 21H7.8c-1.68 0-2.52 0-3.162-.327a3 3 0 0 1-1.311-1.311C3 18.72 3 17.88 3 16.2V15m14-5-5 5m0 0-5-5m5 5V3"/>
    </symbol>

    <!-- ====== SETTINGS ====== -->
    <symbol id="icon-settings" viewBox="0 0 24 24">
        <path stroke="currentColor" fill="none" stroke-linecap="round" stroke-linejoin="round" stroke-width="2" d="m9.397 19.371.584 1.315a2.212 2.212 0 0 0 4.045 0l.584-1.315a2.426 2.426 0 0 1 2.47-1.423l1.43.152a2.212 2.212 0 0 0 2.023-3.502l-.847-1.164a2.428 2.428 0 0 1-.46-1.434c0-.513.162-1.014.464-1.429l.847-1.163a2.211 2.211 0 0 0-2.022-3.502l-1.43.152a2.433 2.433 0 0 1-1.47-.312 2.425 2.425 0 0 1-1-1.117l-.59-1.315a2.213 2.213 0 0 0-4.044 0L9.397 4.63c-.207.468-.557.86-1 1.117-.445.256-.96.365-1.47.312l-1.434-.152A2.212 2.212 0 0 0 3.47 9.408l.847 1.163a2.43 2.43 0 0 1 0 2.858l-.847 1.163a2.21 2.21 0 0 0 .786 3.273c.381.195.81.274 1.237.23l1.43-.153a2.434 2.434 0 0 1 2.474 1.43Z"/>
        <path stroke="currentColor" fill="none" stroke-linecap="round" stroke-linejoin="round" stroke-width="2" d="M12.002 15a3 3 0 1 0 0-6 3 3 0 0 0 0 6Z"/>
    </symbol>

    <!-- ====== EDIT ====== -->
    <symbol id="icon-edit" viewBox="0 0 24 24">
        <path stroke="currentColor" fill="none" stroke-linecap="round" stroke-linejoin="round" stroke-width="2" d="M11 4H6.8c-1.68 0-2.52 0-3.162.327a3 3 0 0 0-1.311 1.311C2 6.28 2 7.12 2 8.8v8.4c0 1.68 0 2.52.327 3.162a3 3 0 0 0 1.311 1.311C4.28 22 5.12 22 6.8 22h8.4c1.68 0 2.52 0 3.162-.327a3 3 0 0 0 1.311-1.311C20 19.72 20 18.88 20 17.2V13M8 16h1.675c.489 0 .733 0 .963-.055.204-.05.4-.13.579-.24.201-.123.374-.296.72-.642L21.5 5.5a2.121 2.121 0 0 0-3-3l-9.563 9.563c-.346.346-.519.519-.642.72a2 2 0 0 0-.24.579c-.055.23-.055.474-.055.963V16Z"/>
    </symbol>

    <!-- ====== CART ====== -->
    <symbol id="icon-cart" viewBox="0 0 24 24">
        <path stroke="currentColor" fill="none" stroke-linecap="round" stroke-linejoin="round" stroke-width="2" d="M2 2h1.306c.246 0 .37 0 .468.045a.5.5 0 0 1 .213.185c.059.092.076.213.111.457L4.571 6m0 0 1.052 7.731c.134.982.2 1.472.435 1.841a2 2 0 0 0 .853.745c.398.183.893.183 1.883.183h8.558c.942 0 1.414 0 1.799-.17a2 2 0 0 0 .841-.696c.239-.346.327-.81.503-1.735l1.324-6.95c.062-.325.093-.488.048-.615a.5.5 0 0 0-.22-.266C21.532 6 21.366 6 21.034 6H4.571ZM10 21a1 1 0 1 1-2 0 1 1 0 0 1 2 0Zm8 0a1 1 0 1 1-2 0 1 1 0 0 1 2 0Z"/>
    </symbol>

    <!-- ====== USER ====== -->
    <symbol id="icon-user" viewBox="0 0 24 24">
        <path stroke="currentColor" fill="none" stroke-linecap="round" stroke-linejoin="round" stroke-width="2" d="M3 20c2.336-2.477 5.507-4 9-4 3.493 0 6.664 1.523 9 4M16.5 7.5a4.5 4.5 0 1 1-9 0 4.5 4.5 0 0 1 9 0Z"/>
    </symbol>

    <!-- ====== FILTER ====== -->
    <symbol id="icon-filter" viewBox="0 0 24 24">
        <path stroke="currentColor" fill="none" stroke-linecap="round" stroke-linejoin="round" stroke-width="2" d="M3 8h12m0 0a3 3 0 1 0 6 0 3 3 0 0 0-6 0Zm-6 8h12M9 16a3 3 0 1 1-6 0 3 3 0 0 1 6 0Z"/>
    </symbol>

    <!-- ====== SEARCH ====== -->
    <symbol id="icon-search" viewBox="0 0 24 24">
        <path stroke="currentColor" fill="none" stroke-linecap="round" stroke-linejoin="round" stroke-width="2" d="m21 21-4.35-4.35M11 6a5 5 0 0 1 5 5m3 0a8 8 0 1 1-16 0 8 8 0 0 1 16 0Z"/>
    </symbol>

    <!-- ====== HEART ====== -->
    <symbol id="icon-heart" viewBox="0 0 24 24">
        <path stroke="currentColor" fill="none" stroke-linecap="round" stroke-linejoin="round" stroke-width="2" d="M11.993 5.136c-2-2.338-5.333-2.966-7.838-.826s-2.858 5.719-.89 8.25c1.635 2.105 6.585 6.544 8.207 7.98.182.162.272.242.378.274a.504.504 0 0 0 .286 0c.106-.032.197-.112.378-.273 1.623-1.437 6.573-5.876 8.208-7.98 1.967-2.532 1.658-6.133-.89-8.251-2.549-2.118-5.84-1.512-7.839.826Z" clip-rule="evenodd"/>
    </symbol>

    <!-- ====== LIKE ====== -->
    <symbol id="icon-like" viewBox="0 0 24 24">
        <path stroke="currentColor" fill="none" stroke-linecap="round" stroke-linejoin="round" stroke-width="2" d="M7 22V11m-5 2v7a2 2 0 0 0 2 2h13.426a3 3 0 0 0 2.965-2.544l1.077-7A3 3 0 0 0 18.503 9H15a1 1 0 0 1-1-1V4.466A2.466 2.466 0 0 0 11.534 2a.822.822 0 0 0-.75.488l-3.52 7.918A1 1 0 0 1 6.35 11H4a2 2 0 0 0-2 2Z"/>
    </symbol>

    <!-- ====== DISLIKE ====== -->
    <symbol id="icon-dislike" viewBox="0 0 24 24">
        <path stroke="currentColor" fill="none" stroke-linecap="round" stroke-linejoin="round" stroke-width="2" d="M17.001 2v11m5-3.2V5.2c0-1.12 0-1.68-.218-2.108a2 2 0 0 0-.874-.874C20.481 2 19.921 2 18.801 2H8.119c-1.461 0-2.192 0-2.782.267a3 3 0 0 0-1.275 1.094c-.354.542-.465 1.265-.687 2.71l-.523 3.4c-.293 1.904-.44 2.857-.157 3.598a3 3 0 0 0 1.32 1.539C4.705 15 5.668 15 7.596 15h.805c.56 0 .84 0 1.054.109a1 1 0 0 1 .437.437c.109.214.109.494.109 1.054v2.934A2.466 2.466 0 0 0 12.467 22a.821.821 0 0 0 .751-.488l3.36-7.562c.154-.344.23-.516.35-.642a1 1 0 0 1 .384-.249c.164-.059.352-.059.729-.059h.76c1.12 0 1.68 0 2.108-.218a2 2 0 0 0 .874-.874c.218-.428.218-.988.218-2.108Z"/>
    </symbol>

    <!-- ====== FILE ====== -->
    <symbol id="icon-file" viewBox="0 0 24 24">
        <path stroke="currentColor" fill="none" stroke-linecap="round" stroke-linejoin="round" stroke-width="2" d="M14 2.27V6.4c0 .56 0 .84.109 1.054a1 1 0 0 0 .437.437C14.76 8 15.04 8 15.6 8h4.13M20 9.988V17.2c0 1.68 0 2.52-.327 3.162a3 3 0 0 1-1.311 1.311C17.72 22 16.88 22 15.2 22H8.8c-1.68 0-2.52 0-3.162-.327a3 3 0 0 1-1.311-1.311C4 19.72 4 18.88 4 17.2V6.8c0-1.68 0-2.52.327-3.162a3 3 0 0 1 1.311-1.311C6.28 2 7.12 2 8.8 2h3.212c.733 0 1.1 0 1.446.083.306.073.598.195.867.36.303.185.562.444 1.08.963l3.19 3.188c.518.519.777.778.963 1.081a3 3 0 0 1 .36.867c.082.346.082.712.082 1.446Z"/>
    </symbol>

    <!-- ====== INFO ====== -->
    <symbol id="icon-info" viewBox="0 0 24 24">
        <path stroke="currentColor" fill="none" stroke-linecap="round" stroke-linejoin="round" stroke-width="2" d="M12 16v-4m0-4h.01M22 12c0 5.523-4.477 10-10 10S2 17.523 2 12 6.477 2 12 2s10 4.477 10 10Z"/>
    </symbol>

    <!-- ====== TRASH ====== -->
    <symbol id="icon-trash" viewBox="0 0 24 24">
        <path stroke="currentColor" fill="none" stroke-linecap="round" stroke-linejoin="round" stroke-width="2" d="M9 3h6M3 6h18m-2 0-.701 10.52c-.105 1.578-.158 2.367-.499 2.965a3 3 0 0 1-1.298 1.215c-.62.3-1.41.3-2.993.3h-3.018c-1.582 0-2.373 0-2.993-.3A3 3 0 0 1 6.2 19.485c-.34-.598-.394-1.387-.499-2.966L5 6"/>
    </symbol>

    <!-- ====== CALENDAR ====== -->
    <symbol id="icon-calendar" viewBox="0 0 24 24">
        <path stroke="currentColor" fill="none" stroke-linecap="round" stroke-linejoin="round" stroke-width="2" d="M21 10H3m13-8v4M8 2v4m-.2 16h8.4c1.68 0 2.52 0 3.162-.327a3 3 0 0 0 1.311-1.311C21 19.72 21 18.88 21 17.2V8.8c0-1.68 0-2.52-.327-3.162a3 3 0 0 0-1.311-1.311C18.72 4 17.88 4 16.2 4H7.8c-1.68 0-2.52 0-3.162.327a3 3 0 0 0-1.311 1.311C3 6.28 3 7.12 3 8.8v8.4c0 1.68 0 2.52.327 3.162a3 3 0 0 0 1.311 1.311C5.28 22 6.12 22 7.8 22Z"/>
    </symbol>

    <!-- ====== CLOCK ====== -->
    <symbol id="icon-clock" viewBox="0 0 24 24">
        <path stroke="currentColor" fill="none" stroke-linecap="round" stroke-linejoin="round" stroke-width="2" d="M12 6v6l4 2m6-2c0 5.523-4.477 10-10 10S2 17.523 2 12 6.477 2 12 2s10 4.477 10 10Z"/>
    </symbol>

    <!-- ====== WAVE ====== -->
    <symbol id="icon-wave" viewBox="0 0 24 24">
        <path stroke="currentColor" fill="none" stroke-linecap="round" stroke-linejoin="round" stroke-width="2" d="M3 10v4m4.5-3v2M12 6v12m4.5-15v18M21 10v4"/>
    </symbol>

    <!-- ====== PAUSE ====== -->
    <symbol id="icon-pause" viewBox="0 0 24 24">
        <path stroke="currentColor" fill="none" stroke-linecap="round" stroke-linejoin="round" stroke-width="2" d="M8 18V6m8 12V6"/>
    </symbol>

    <!-- ====== SHARE ====== -->
    <symbol id="icon-share" viewBox="0 0 24 24">
        <path stroke="currentColor" fill="none" stroke-linecap="round" stroke-linejoin="round" stroke-width="2" d="M21 9V3m0 0h-6m6 0-9 9m-2-9H7.8c-1.68 0-2.52 0-3.162.327a3 3 0 0 0-1.311 1.311C3 5.28 3 6.12 3 7.8v8.4c0 1.68 0 2.52.327 3.162a3 3 0 0 0 1.311 1.311C5.28 21 6.12 21 7.8 21h8.4c1.68 0 2.52 0 3.162-.327a3 3 0 0 0 1.311-1.311C21 18.72 21 17.88 21 16.2V14"/>
    </symbol>

    <!-- ====== LOCK ====== -->
    <symbol id="icon-lock" viewBox="0 0 24 24">
        <path stroke="currentColor" fill="none" stroke-linecap="round" stroke-linejoin="round" stroke-width="2" d="M17 10V8A5 5 0 0 0 7 8v2m5 4.5v2M8.8 21h6.4c1.68 0 2.52 0 3.162-.327a3 3 0 0 0 1.311-1.311C20 18.72 20 17.88 20 16.2v-1.4c0-1.68 0-2.52-.327-3.162a3 3 0 0 0-1.311-1.311C17.72 10 16.88 10 15.2 10H8.8c-1.68 0-2.52 0-3.162.327a3 3 0 0 0-1.311 1.311C4 12.28 4 13.12 4 14.8v1.4c0 1.68 0 2.52.327 3.162a3 3 0 0 0 1.311 1.311C6.28 21 7.12 21 8.8 21Z"/>
    </symbol>

    <!-- ====== STAR ====== -->
    <symbol id="icon-star" viewBox="0 0 24 24">
        <path stroke="currentColor" fill="none" stroke-linecap="round" stroke-linejoin="round" stroke-width="2" d="M11.283 3.453c.23-.467.345-.7.502-.775a.5.5 0 0 1 .43 0c.157.075.272.308.502.775l2.187 4.43c.068.138.102.207.152.26a.502.502 0 0 0 .155.113c.067.031.143.042.295.065l4.891.714c.515.076.773.113.892.24a.5.5 0 0 1 .133.409c-.023.171-.21.353-.582.716l-3.54 3.446c-.11.108-.165.161-.2.225a.5.5 0 0 0-.06.183c-.009.073.004.149.03.3l.835 4.868c.088.513.132.77.05.922a.5.5 0 0 1-.349.253c-.17.032-.4-.09-.862-.332l-4.373-2.3c-.136-.071-.204-.107-.276-.121a.502.502 0 0 0-.192 0c-.072.014-.14.05-.276.122l-4.373 2.3c-.461.242-.692.363-.862.331a.5.5 0 0 1-.348-.253c-.083-.152-.039-.409.05-.922l.834-4.867c.026-.152.039-.228.03-.3a.5.5 0 0 0-.06-.184c-.035-.064-.09-.117-.2-.225L3.16 10.4c-.373-.363-.56-.545-.582-.716a.5.5 0 0 1 .132-.41c.12-.126.377-.163.892-.239l4.891-.714c.152-.023.228-.034.295-.065a.5.5 0 0 0 .155-.113c.05-.053.084-.122.152-.26l2.187-4.43Z"/>
    </symbol>

    <!-- ====== EYE ====== -->
    <symbol id="icon-eye" viewBox="0 0 24 24">
        <path stroke="currentColor" fill="none" stroke-linecap="round" stroke-linejoin="round" stroke-width="2" d="M2.42 12.713c-.136-.215-.204-.323-.242-.49a1.173 1.173 0 0 1 0-.446c.038-.167.106-.274.242-.49C3.546 9.505 6.895 5 12 5s8.455 4.505 9.58 6.287c.137.215.205.323.243.49.029.125.029.322 0 .446-.038.167-.106.274-.242.49C20.455 14.495 17.105 19 12 19c-5.106 0-8.455-4.505-9.58-6.287Z"/>
        <path stroke="currentColor" fill="none" stroke-linecap="round" stroke-linejoin="round" stroke-width="2" d="M12 15a3 3 0 1 0 0-6 3 3 0 0 0 0 6Z"/>
    </symbol>

    <!-- ====== EYE-OFF ====== -->
    <symbol id="icon-eye-off" viewBox="0 0 24 24">
        <path stroke="currentColor" fill="none" stroke-linecap="round" stroke-linejoin="round" stroke-width="2" d="M10.743 5.092C11.149 5.032 11.569 5 12 5c5.105 0 8.455 4.505 9.58 6.287.137.215.205.323.243.49a1.16 1.16 0 0 1 0 .447c-.038.166-.107.274-.244.492-.3.474-.757 1.141-1.363 1.865M6.724 6.715c-2.162 1.467-3.63 3.504-4.303 4.57-.137.217-.205.325-.243.492a1.173 1.173 0 0 0 0 .446c.038.167.106.274.242.49C3.546 14.495 6.895 19 12 19c2.059 0 3.832-.732 5.289-1.723M3 3l18 18M9.88 9.879a3 3 0 1 0 4.243 4.243"/>
    </symbol>

    <!-- ====== CHART ====== -->
    <symbol id="icon-chart" viewBox="0 0 24 24">
        <path stroke="currentColor" fill="none" stroke-linecap="round" stroke-linejoin="round" stroke-width="2" d="M8 13v4m8-6v6M12 7v10m-4.2 4h8.4c1.68 0 2.52 0 3.162-.327a3 3 0 0 0 1.311-1.311C21 18.72 21 17.88 21 16.2V7.8c0-1.68 0-2.52-.327-3.162a3 3 0 0 0-1.311-1.311C18.72 3 17.88 3 16.2 3H7.8c-1.68 0-2.52 0-3.162.327a3 3 0 0 0-1.311 1.311C3 5.28 3 6.12 3 7.8v8.4c0 1.68 0 2.52.327 3.162a3 3 0 0 0 1.311 1.311C5.28 21 6.12 21 7.8 21Z"/>
    </symbol>

    <!-- ====== MESSAGE ====== -->
    <symbol id="icon-message" viewBox="0 0 24 24">
        <path stroke="currentColor" fill="none" stroke-linecap="round" stroke-linejoin="round" stroke-width="2" d="M7 8.5h5M7 12h8m-5.316 6H16.2c1.68 0 2.52 0 3.162-.327a3 3 0 0 0 1.311-1.311C21 15.72 21 14.88 21 13.2V7.8c0-1.68 0-2.52-.327-3.162a3 3 0 0 0-1.311-1.311C18.72 3 17.88 3 16.2 3H7.8c-1.68 0-2.52 0-3.162.327a3 3 0 0 0-1.311 1.311C3 5.28 3 6.12 3 7.8v12.535c0 .533 0 .8.11.937a.5.5 0 0 0 .39.188c.176 0 .384-.167.8-.5l2.385-1.908c.488-.39.731-.585 1.002-.724.241-.122.497-.212.762-.267C8.748 18 9.06 18 9.684 18Z"/>
    </symbol>

    <!-- ====== SORT ====== -->
    <symbol id="icon-sort" viewBox="0 0 24 24">
        <path stroke="currentColor" fill="none" stroke-linecap="round" stroke-linejoin="round" stroke-width="2" d="M17 4v16m0 0-4-4m4 4 4-4M7 20V4m0 0L3 8m4-4 4 4"/>
    </symbol>

    <!-- ====== QUEST ====== -->
    <symbol id="icon-quest" viewBox="0 0 24 24">
        <path stroke="currentColor" fill="none" stroke-linecap="round" stroke-linejoin="round" stroke-width="2" d="M10 8.002a2.249 2.249 0 0 1 4.37.75c0 1.499-2.25 2.248-2.25 2.248m.03 3h.01M7 18v2.335c0 .533 0 .8.11.937a.5.5 0 0 0 .39.188c.176 0 .384-.167.8-.5l2.385-1.908c.487-.39.731-.585 1.002-.724.241-.122.497-.212.762-.267.299-.061.61-.061 1.235-.061H16.2c1.68 0 2.52 0 3.162-.327a3 3 0 0 0 1.311-1.311C21 15.72 21 14.88 21 13.2V7.8c0-1.68 0-2.52-.327-3.162a3 3 0 0 0-1.311-1.311C18.72 3 17.88 3 16.2 3H7.8c-1.68 0-2.52 0-3.162.327a3 3 0 0 0-1.311 1.311C3 5.28 3 6.12 3 7.8V14c0 .93 0 1.395.102 1.777a3 3 0 0 0 2.122 2.12C5.605 18 6.07 18 7 18Z"/>
    </symbol>

    <!-- ====== SPECS ====== -->
    <symbol id="icon-specs" viewBox="0 0 24 24">
        <path stroke="currentColor" fill="none" stroke-linecap="round" stroke-linejoin="round" stroke-width="2" d="M21 12H9m12-6H9m12 12H9m-4-6a1 1 0 1 1-2 0 1 1 0 0 1 2 0Zm0-6a1 1 0 1 1-2 0 1 1 0 0 1 2 0Zm0 12a1 1 0 1 1-2 0 1 1 0 0 1 2 0Z"/>
    </symbol>

    <!-- ====== CHECK ====== -->
    <symbol id="icon-check" viewBox="0 0 24 24">
        <path stroke="currentColor" fill="none" stroke-linecap="round" stroke-linejoin="round" stroke-width="2" d="m9 10.5 2 2L15.5 8M20 21V7.8c0-1.68 0-2.52-.327-3.162a3 3 0 0 0-1.311-1.311C17.72 3 16.88 3 15.2 3H8.8c-1.68 0-2.52 0-3.162.327a3 3 0 0 0-1.311 1.311C4 5.28 4 6.12 4 7.8V21l2.75-2 2.5 2L12 19l2.75 2 2.5-2L20 21Z"/>
    </symbol>

    <!-- ====== MENU-2-LINE ====== -->
    <symbol id="icon-menu-2-line" viewBox="0 0 24 24">
        <path stroke="currentColor" fill="none" stroke-linecap="round" stroke-linejoin="round" stroke-width="2" d="M3 8h18M3 16h18"/>
    </symbol>

    <!-- ====== MENU-3-LINE ====== -->
    <symbol id="icon-menu-3-line" viewBox="0 0 24 24">
        <path stroke="currentColor" fill="none" stroke-linecap="round" stroke-linejoin="round" stroke-width="2" d="M3 12h18M3 18h18M3 6h18"/>
    </symbol>

    <!-- ====== MENU-3-LINE-MOD ====== -->
    <symbol id="icon-menu-3-line-mod" viewBox="0 0 24 24">
        <path stroke="currentColor" fill="none" stroke-linecap="round" stroke-linejoin="round" stroke-width="2" d="M3 12h18M7 18h14M7 6h14"/>
    </symbol>

    <!-- ====== MENU-DOTS-VERTICAL ====== -->
    <symbol id="icon-menu-dots-vertical" viewBox="0 0 24 24">
        <path stroke="currentColor" fill="none" stroke-linecap="round" stroke-linejoin="round" stroke-width="2" d="M12 13a1 1 0 1 0 0-2 1 1 0 0 0 0 2Zm0-7a1 1 0 1 0 0-2 1 1 0 0 0 0 2Zm0 14a1 1 0 1 0 0-2 1 1 0 0 0 0 2Z"/>
    </symbol>

    <!-- ====== MENU-DOTS-HORIZONTAL ====== -->
    <symbol id="icon-menu-dots-horizontal" viewBox="0 0 24 24">
        <path stroke="currentColor" fill="none" stroke-linecap="round" stroke-linejoin="round" stroke-width="2" d="M11 12a1 1 0 1 0 2 0 1 1 0 0 0-2 0Zm7 0a1 1 0 1 0 2 0 1 1 0 0 0-2 0ZM4 12a1 1 0 1 0 2 0 1 1 0 0 0-2 0Z"/>
    </symbol>

    <!-- ====== PLUS ====== -->
    <symbol id="icon-plus" viewBox="0 0 24 24">
        <path stroke="currentColor" fill="none" stroke-linecap="round" stroke-width="2" d="M4.5 12h15m-7.498 7.5v-15"/>
    </symbol>

    <!-- ====== MINUS ====== -->
    <symbol id="icon-minus" viewBox="0 0 24 24">
        <path stroke="currentColor" fill="none" stroke-linecap="round" stroke-width="2" d="M4.5 12h15"/>
    </symbol>

    <!-- ====== BONUS ====== -->
    <symbol id="icon-bonus" viewBox="0 0 24 24">
        <path stroke="currentColor" fill="none" stroke-linecap="round" stroke-linejoin="round" stroke-width="2" d="M10.101 4A7 7 0 0 1 20 13.899M11 15H7m4 0v-2a1 1 0 0 0-1-1H7l-.895 2.684a1 1 0 0 0 0 .632L7 18h4a1 1 0 0 0 1-1v-1a1 1 0 0 0-1-1Zm5 0a7 7 0 1 1-14 0 7 7 0 0 1 14 0Z"/>
    </symbol>

    <!-- ====== TRIANGLE DOWN ====== -->
    <symbol id="icon-triangle-down" viewBox="0 0 16 16">
        <path fill="currentColor" stroke="none" d="M7.181 12.518a.936.936 0 0 0 1.638 0l4.043-7.013C13.244 4.843 12.786 4 12.043 4H3.957c-.743 0-1.201.843-.82 1.505l4.044 7.013Z"/>
    </symbol>

    <!-- ====== TRIANGLE UP ====== -->
    <symbol id="icon-triangle-up" viewBox="0 0 16 16">
        <path fill="currentColor" stroke="none" d="M8.819 3.482a.936.936 0 0 0-1.638 0l-4.043 7.013c-.382.662.076 1.505.819 1.505h8.087c.742 0 1.2-.843.818-1.505L8.82 3.482Z"/>
    </symbol>

    <!-- ***********************************
    * CHEVRONS
    **************************************** -->
    <symbol id="icon-chevron-down" viewBox="0 0 24 24">
        <path stroke="currentColor" fill="none" stroke-linecap="round" stroke-linejoin="round" stroke-width="2" d="m6 10 6 6 6-6"/>
    </symbol>

    <symbol id="icon-chevron-up" viewBox="0 0 24 24">
        <path stroke="currentColor" fill="none" stroke-linecap="round" stroke-linejoin="round" stroke-width="2" d="m6 14 6-6 6 6"/>
    </symbol>

    <symbol id="icon-chevron-right" viewBox="0 0 24 24">
        <path stroke="currentColor" fill="none" stroke-linecap="round" stroke-linejoin="round" stroke-width="2" d="m10 6 6 6-6 6"/>
    </symbol>

    <symbol id="icon-chevron-left" viewBox="0 0 24 24">
        <path stroke="currentColor" fill="none" stroke-linecap="round" stroke-linejoin="round" stroke-width="2" d="m14 18-6-6 6-6"/>
    </symbol>

    <!-- ***********************************
    * CHEVRONS SMALL
    **************************************** -->
    <symbol id="icon-chevron-down-sm" viewBox="0 0 24 24">
        <path stroke="currentColor" fill="none" stroke-linecap="round" stroke-linejoin="round" stroke-width="2" d="m8 11 4 4 4-4"/>
    </symbol>

    <symbol id="icon-chevron-up-sm" viewBox="0 0 24 24">
        <path stroke="currentColor" fill="none" stroke-linecap="round" stroke-linejoin="round" stroke-width="2" d="m8 13 4-4 4 4"/>
    </symbol>

    <symbol id="icon-chevron-right-sm" viewBox="0 0 24 24">
        <path stroke="currentColor" fill="none" stroke-linecap="round" stroke-linejoin="round" stroke-width="2" d="m11 8 4 4-4 4"/>
    </symbol>

    <symbol id="icon-chevron-left-sm" viewBox="0 0 24 24">
        <path stroke="currentColor" fill="none" stroke-linecap="round" stroke-linejoin="round" stroke-width="2" d="m13 16-4-4 4-4"/>
    </symbol>

    <!-- ***********************************
    * ARROWS
    **************************************** -->
    <symbol id="icon-arrow-down" viewBox="0 0 24 24">
        <path stroke="currentColor" fill="none" stroke-linecap="round" stroke-linejoin="round" stroke-width="2" d="M12 5v14m0 0 7-7m-7 7-7-7"/>
    </symbol>

    <symbol id="icon-arrow-up" viewBox="0 0 24 24">
        <path stroke="currentColor" fill="none" stroke-linecap="round" stroke-linejoin="round" stroke-width="2" d="M12 19V5m0 0-7 7m7-7 7 7"/>
    </symbol>

    <symbol id="icon-arrow-right" viewBox="0 0 24 24">
        <path stroke="currentColor" fill="none" stroke-linecap="round" stroke-linejoin="round" stroke-width="2" d="M5 12h14m0 0-7-7m7 7-7 7"/>
    </symbol>

    <symbol id="icon-arrow-left" viewBox="0 0 24 24">
        <path stroke="currentColor" fill="none" stroke-linecap="round" stroke-linejoin="round" stroke-width="2" d="M19 12H5m0 0 7 7m-7-7 7-7"/>
    </symbol>

    <!-- ***********************************
    * ARROWS DIAGONAL
    **************************************** -->
    <symbol id="icon-arrow-down-right" viewBox="0 0 24 24">
        <path stroke="currentColor" fill="none" stroke-linecap="round" stroke-linejoin="round" stroke-width="2" d="m7.05 7.05 9.899 9.9m0 0v-9.9m0 9.9h-9.9"/>
    </symbol>

    <symbol id="icon-arrow-up-right" viewBox="0 0 24 24">
        <path stroke="currentColor" fill="none" stroke-linecap="round" stroke-linejoin="round" stroke-width="2" d="m7.05 16.95 9.9-9.9m0 0h-9.9m9.9 0v9.9"/>
    </symbol>

    <symbol id="icon-arrow-up-left" viewBox="0 0 24 24">
        <path stroke="currentColor" fill="none" stroke-linecap="round" stroke-linejoin="round" stroke-width="2" d="m16.95 16.95-9.899-9.9m0 0v9.9m0-9.9h9.9"/>
    </symbol>

    <symbol id="icon-arrow-down-left" viewBox="0 0 24 24">
        <path stroke="currentColor" fill="none" stroke-linecap="round" stroke-linejoin="round" stroke-width="2" d="m16.95 7.05-9.9 9.9m0 0h9.9m-9.9 0v-9.9"/>
    </symbol>

    <!-- ***********************************
    * SOCIALS MONOCHROME
    **************************************** -->
    <symbol id="icon-social-mono-vk" viewBox="0 0 24 24">
        <path fill="currentColor" stroke="none" d="M12.982 19C5.466 19 1.18 13.745 1 5h3.765c.124 6.418 2.9 9.137 5.098 9.698V5h3.546v5.536c2.17-.239 4.452-2.761 5.221-5.536h3.546a10.79 10.79 0 0 1-1.698 4.002 10.558 10.558 0 0 1-3.126 2.977 10.895 10.895 0 0 1 3.563 2.893A11.153 11.153 0 0 1 23 19h-3.903a6.94 6.94 0 0 0-2.104-3.377 6.726 6.726 0 0 0-3.584-1.626V19h-.427Z"/>
    </symbol>

    <symbol id="icon-social-mono-tg" viewBox="0 0 24 24">
        <path fill="currentColor" stroke="none" d="m21 4.602-3.005 15.69s-.42 1.088-1.576.566l-6.934-5.505-.033-.017c.937-.87 8.2-7.633 8.518-7.94.491-.475.186-.757-.384-.399l-10.73 7.056-4.138-1.442s-.652-.24-.714-.762c-.064-.523.735-.805.735-.805l16.874-6.855S21 3.558 21 4.602Z"/>
    </symbol>

    <symbol id="icon-social-mono-wt" viewBox="0 0 24 24">
        <path fill="currentColor" stroke="none" d="M19.927 4.063A10.428 10.428 0 0 0 12.537 1C6.757 1 2.073 5.667 2.073 11.427c0 1.823.512 3.646 1.39 5.177L2 22l5.561-1.458c1.537.802 3.22 1.24 4.976 1.24 5.78 0 10.463-4.667 10.463-10.428-.073-2.698-1.098-5.323-3.073-7.291Zm-2.342 11.083c-.22.583-1.244 1.166-1.756 1.24a4.104 4.104 0 0 1-1.61-.073c-.365-.146-.877-.292-1.463-.584-2.634-1.094-4.317-3.719-4.463-3.937-.147-.146-1.098-1.386-1.098-2.698 0-1.313.659-1.896.878-2.188.22-.291.512-.291.732-.291h.512c.146 0 .366-.073.585.437.22.51.732 1.823.805 1.896a.463.463 0 0 1 0 .437 1.527 1.527 0 0 1-.292.438c-.147.146-.293.364-.366.437-.147.146-.293.292-.147.51.147.293.659 1.095 1.464 1.824 1.024.875 1.83 1.166 2.122 1.312.293.146.439.073.585-.073.146-.146.659-.729.805-1.02.146-.292.366-.22.585-.146.22.073 1.537.729 1.757.875.292.146.439.218.512.291.073.22.073.73-.147 1.313Z"/>
    </symbol>

    <symbol id="icon-social-mono-in" viewBox="0 0 24 24">
        <path fill="currentColor" stroke="none" d="M7.75 12a4.25 4.25 0 1 1 8.5 0 4.25 4.25 0 0 1-8.5 0Z"/>
        <path fill="currentColor" stroke="none" fill-rule="evenodd" d="M8 2a6 6 0 0 0-6 6v8a6 6 0 0 0 6 6h8a6 6 0 0 0 6-6V8a6 6 0 0 0-6-6H8Zm4 4.25a5.75 5.75 0 1 0 0 11.5 5.75 5.75 0 0 0 0-11.5Z" clip-rule="evenodd"/>
    </symbol>

    <symbol id="icon-social-mono-ya" viewBox="0 0 24 24">
        <path fill="currentColor" stroke="none" fill-rule="evenodd" d="M9.66 2.555c-2.762 1.002-4.08 2.947-4.08 6.02 0 2.286.593 3.596 2.393 5.285.769.722 1.398 1.385 1.398 1.474 0 .088-.984 1.625-2.186 3.413L5 22h3.743l2.032-3.082a829.306 829.306 0 0 0 2.495-3.802l.464-.718-1.299-.842c-2.62-1.695-3.608-3.178-3.608-5.414 0-2.23 2.099-3.676 5.334-3.676h.642V22h3.53V2l-3.598.01c-2.869.008-3.899.118-5.075.545Z" clip-rule="evenodd"/>
    </symbol>

    <symbol id="icon-social-mono-go" viewBox="0 0 24 24">
        <path fill="currentColor" stroke="none" fill-rule="evenodd" d="M22 12.227c0-.709-.065-1.39-.186-2.045h-9.61v3.868h5.492c-.237 1.25-.956 2.31-2.037 3.018v2.51h3.298c1.93-1.742 3.043-4.305 3.043-7.35Z" clip-rule="evenodd"/>
        <path fill="currentColor" stroke="none" fill-rule="evenodd" d="M12.208 22c2.755 0 5.065-.895 6.754-2.423l-3.298-2.509c-.914.6-2.083.955-3.456.955-2.657 0-4.907-1.76-5.71-4.123H3.09v2.59C4.77 19.76 8.22 22 12.21 22Z" clip-rule="evenodd"/>
        <path fill="currentColor" stroke="none" fill-rule="evenodd" d="M6.494 13.9a5.903 5.903 0 0 1-.32-1.9c0-.66.116-1.3.32-1.9V7.509H3.085a9.834 9.834 0 0 0 0 8.982l3.41-2.591Z" clip-rule="evenodd"/>
        <path fill="currentColor" stroke="none" fill-rule="evenodd" d="M12.208 5.977c1.498 0 2.844.505 3.901 1.496l2.927-2.868C17.269 2.99 14.959 2 12.208 2 8.22 2 4.768 4.24 3.09 7.51L6.5 10.1c.802-2.364 3.052-4.123 5.71-4.123Z" clip-rule="evenodd"/>
    </symbol>

    <!-- ***********************************
    * DOTS
    **************************************** -->
    <symbol id="icon-dot-sm" viewBox="0 0 24 24">
        <path stroke="currentColor" fill="none" stroke-linecap="round" stroke-linejoin="round" stroke-width="2" d="M12 13a1 1 0 1 0 0-2 1 1 0 0 0 0 2Z"/>
    </symbol>

    <symbol id="icon-dot-md" viewBox="0 0 24 24">
        <path stroke="currentColor" fill="none" stroke-linecap="round" stroke-linejoin="round" stroke-width="4" d="M12 14a2 2 0 1 0 0-4 2 2 0 0 0 0 4Z"/>
    </symbol>

    <symbol id="icon-dot-lg" viewBox="0 0 24 24">
        <path stroke="currentColor" fill="none" stroke-linecap="round" stroke-linejoin="round" stroke-width="8" d="M12 16a4 4 0 1 0 0-8 4 4 0 0 0 0 8Z"/>
    </symbol>

    <symbol id="icon-dot-xl" viewBox="0 0 24 24">
        <path stroke="currentColor" fill="none" stroke-linecap="round" stroke-linejoin="round" stroke-width="12" d="M12 18a6 6 0 1 0 0-12 6 6 0 0 0 0 12Z"/>
    </symbol>

    <!-- ********************************************************************************** -->
    <!-- *********************************** SLIM ICONS *********************************** -->
    <!-- ********************************************************************************** -->

    <!-- ====== TRUE SLIM ====== -->
    <symbol id="icon-slim-true" viewBox="0 0 24 24">
        <path stroke="currentColor" fill="none" stroke-linecap="round" d="m5 14 3.233 2.425a1 1 0 0 0 1.374-.167L18 6"/>
    </symbol>

    <!-- ====== CLOSE SLIM ====== -->
    <symbol id="icon-slim-close" viewBox="0 0 24 24">
        <path stroke="currentColor" fill="none" stroke-linecap="square" stroke-linejoin="round" d="m18 6-6 6m0 0-6 6m6-6L6 6m6 6 6 6"/>
    </symbol>

    <!-- ====== PLAY SLIM ====== -->
    <symbol id="icon-slim-play" viewBox="0 0 24 24">
        <path stroke="currentColor" fill="none" stroke-linecap="round" stroke-linejoin="round" d="M16.211 11.106 9.737 7.868A1.2 1.2 0 0 0 8 8.942v6.116a1.2 1.2 0 0 0 1.737 1.074l6.474-3.238a1 1 0 0 0 0-1.788Z"/>
    </symbol>

    <!-- ====== HOME SLIM ====== -->
    <symbol id="icon-slim-home" viewBox="0 0 24 24">
        <path fill="currentColor" stroke="none" d="m8.095 7.347.326.38-.326-.38Zm7.81 0-.326.38.326-.38Zm1 .857.325-.38-.325.38Zm-9.81 0-.325-.38.325.38ZM14 21a.5.5 0 0 0 1 0h-1Zm-5 0a.5.5 0 0 0 1 0H9Zm9.5-8.24V17h1v-4.24h-1ZM15 20.5H9v1h6v-1ZM5.5 17v-4.24h-1V17h1Zm1.92-8.416 1-.857-.65-.76-1 .857.65.76Zm8.16-.857 1 .857.65-.76-1-.857-.65.76Zm-7.16 0c.942-.807 1.614-1.382 2.186-1.76.56-.37.974-.516 1.394-.516v-1c-.69 0-1.297.254-1.945.682-.637.42-1.363 1.044-2.285 1.834l.65.76Zm7.81-.76c-.922-.79-1.648-1.413-2.285-1.834-.648-.428-1.255-.682-1.945-.682v1c.42 0 .834.146 1.394.516.572.378 1.244.953 2.185 1.76l.651-.76ZM9 20.5c-.957 0-1.624-.001-2.128-.069-.49-.066-.748-.186-.933-.37l-.707.707c.402.401.907.574 1.507.654.586.08 1.332.078 2.261.078v-1ZM4.5 17c0 .929-.001 1.675.078 2.261.08.6.253 1.105.654 1.507l.707-.707c-.184-.185-.304-.444-.37-.933C5.5 18.624 5.5 17.957 5.5 17h-1Zm14 0c0 .957-.001 1.624-.069 2.128-.066.49-.186.748-.37.933l.707.707c.401-.402.574-.907.654-1.507.08-.585.078-1.332.078-2.26h-1ZM15 21.5c.929 0 1.675.001 2.261-.078.6-.08 1.105-.253 1.507-.654l-.707-.707c-.185.184-.444.305-.933.37-.504.068-1.171.07-2.128.07v1Zm4.5-8.74c0-1.312.01-2.123-.32-2.843l-.909.418c.218.474.229 1.021.229 2.425h1Zm-2.92-4.176c1.065.913 1.473 1.277 1.691 1.751l.909-.418c-.331-.72-.954-1.239-1.95-2.093l-.65.76ZM5.5 12.76c0-1.404.01-1.95.229-2.425l-.909-.418c-.33.72-.32 1.53-.32 2.843h1Zm1.27-4.936c-.996.854-1.619 1.374-1.95 2.093l.909.418c.218-.474.626-.838 1.692-1.751l-.651-.76ZM10.5 15.5h3v-1h-3v1Zm3.5.5v5h1v-5h-1Zm-5 0v5h1v-5H9Zm4.5-.5a.5.5 0 0 1 .5.5h1a1.5 1.5 0 0 0-1.5-1.5v1Zm-3-1A1.5 1.5 0 0 0 9 16h1a.5.5 0 0 1 .5-.5v-1Z"/>
    </symbol>

    <!-- ====== PHONE SLIM ====== -->
    <symbol id="icon-slim-phone" viewBox="0 0 24 24">
        <path stroke="currentColor" fill="none" d="m17.708 13.707 2.648 2.648a.912.912 0 0 1 0 1.29 5.471 5.471 0 0 1-7.15.508l-1.576-1.182a23 23 0 0 1-4.6-4.6l-1.182-1.575a5.471 5.471 0 0 1 .508-7.151.912.912 0 0 1 1.29 0l2.648 2.648a1 1 0 0 1 0 1.414L9.273 8.728a.533.533 0 0 0-.1.616 12.263 12.263 0 0 0 5.484 5.484.533.533 0 0 0 .616-.1l1.021-1.02a1 1 0 0 1 1.414 0Z"/>
    </symbol>

    <!-- ====== MAIL SLIM ====== -->
    <symbol id="icon-slim-mail" viewBox="0 0 24 24">
        <path stroke="currentColor" fill="none" stroke-linecap="round" d="m4 9 7.106 3.553a2 2 0 0 0 1.788 0L20 9M8 18h8c1.886 0 2.828 0 3.414-.586C20 16.828 20 15.886 20 14v-4c0-1.886 0-2.828-.586-3.414C18.828 6 17.886 6 16 6H8c-1.886 0-2.828 0-3.414.586C4 7.172 4 8.114 4 10v4c0 1.886 0 2.828.586 3.414C5.172 18 6.114 18 8 18Z"/>
    </symbol>

    <!-- ====== MARKER SLIM ====== -->
    <symbol id="icon-slim-marker" viewBox="0 0 24 24">
        <path stroke="currentColor" fill="none" d="M19.5 12c0 5.018-5.488 8.403-7.075 9.276a.87.87 0 0 1-.85 0C9.988 20.403 4.5 17.018 4.5 12c0-4.5 3.634-7.5 7.5-7.5 4 0 7.5 3 7.5 7.5Z"/>
        <path stroke="currentColor" fill="none" d="M16 12a4 4 0 1 1-8 0 4 4 0 0 1 8 0Z"/>
    </symbol>

    <!-- ====== PAPERCLIP SLIM ====== -->
    <symbol id="icon-slim-paperclip" viewBox="0 0 24 24">
        <path stroke="currentColor" fill="none" stroke-linecap="round" d="M10.5 6.5V15a1.5 1.5 0 0 0 3 0V6.5a3 3 0 1 0-6 0V17a4.5 4.5 0 1 0 9 0V9.5"/>
    </symbol>

    <!-- ====== DOWNLOAD SLIM ====== -->
    <symbol id="icon-slim-download" viewBox="0 0 24 24">
        <path fill="currentColor" stroke="none" d="m12 14-.354.354.354.353.354-.353L12 14Zm.5-9a.5.5 0 0 0-1 0h1ZM7 19v-.5.5Zm10 0v.5-.5ZM6.646 9.354l5 5 .708-.708-5-5-.708.708Zm5.708 5 5-5-.708-.708-5 5 .708.708ZM12.5 14V5h-1v9h1ZM7 19.5h10v-1H7v1ZM5.5 17v-1h-1v1h1Zm14 0v-1h-1v1h1ZM17 19.5a2.5 2.5 0 0 0 2.5-2.5h-1a1.5 1.5 0 0 1-1.5 1.5v1Zm-10-1A1.5 1.5 0 0 1 5.5 17h-1A2.5 2.5 0 0 0 7 19.5v-1Z"/>
    </symbol>

    <!-- ====== EYE SLIM ====== -->
    <symbol id="icon-slim-eye" viewBox="0 0 24 24">
        <path stroke="currentColor" fill="none" d="M16 12a4 4 0 1 1-8 0 4 4 0 0 1 8 0Z"/>
        <path stroke="currentColor" fill="none" d="M20.189 10.934c.388.472.582.707.582 1.066 0 .359-.194.594-.582 1.066C18.769 14.79 15.636 18 12 18s-6.768-3.21-8.188-4.934c-.388-.472-.583-.707-.583-1.066 0-.359.195-.594.583-1.066C5.233 9.21 8.365 6 12 6c3.636 0 6.768 3.21 8.188 4.934Z"/>
    </symbol>

    <!-- ====== SETTINGS SLIM ====== -->
    <symbol id="icon-slim-settings" viewBox="0 0 24 24">
        <path stroke="currentColor" fill="none" d="M13.984 2.542c.087.169.109.386.152.82.082.82.123 1.23.295 1.456a1 1 0 0 0 .929.384c.28-.037.6-.298 1.238-.82.337-.277.506-.415.687-.473a1 1 0 0 1 .702.035c.175.076.33.23.637.538l.894.894c.308.308.462.462.538.637a1 1 0 0 1 .035.702c-.058.181-.196.35-.472.687-.523.639-.784.958-.822 1.239a1 1 0 0 0 .385.928c.225.172.636.213 1.457.295.433.043.65.065.82.152a1 1 0 0 1 .47.521c.071.177.071.395.071.831v1.264c0 .436 0 .654-.07.83a1 1 0 0 1-.472.522c-.169.087-.386.109-.82.152-.82.082-1.23.123-1.456.295a1 1 0 0 0-.384.929c.038.28.299.6.821 1.238.276.337.414.505.472.687a1 1 0 0 1-.035.702c-.076.175-.23.329-.538.637l-.894.893c-.308.309-.462.463-.637.538a1 1 0 0 1-.702.035c-.181-.058-.35-.196-.687-.472-.639-.522-.958-.783-1.238-.82a1 1 0 0 0-.929.384c-.172.225-.213.635-.295 1.456-.043.434-.065.651-.152.82a1 1 0 0 1-.521.472c-.177.07-.395.07-.831.07h-1.264c-.436 0-.654 0-.83-.07a1 1 0 0 1-.522-.472c-.087-.169-.109-.386-.152-.82-.082-.82-.123-1.23-.295-1.456a1 1 0 0 0-.928-.384c-.281.037-.6.298-1.239.82-.337.277-.506.415-.687.473a1 1 0 0 1-.702-.035c-.175-.076-.33-.23-.637-.538l-.894-.894c-.308-.308-.462-.462-.538-.637a1 1 0 0 1-.035-.702c.058-.181.196-.35.472-.687.523-.639.784-.958.821-1.239a1 1 0 0 0-.384-.928c-.225-.172-.636-.213-1.457-.295-.433-.043-.65-.065-.82-.152a1 1 0 0 1-.47-.521C2 13.286 2 13.068 2 12.632v-1.264c0-.436 0-.654.07-.83a1 1 0 0 1 .472-.522c.169-.087.386-.109.82-.152.82-.082 1.231-.123 1.456-.295a1 1 0 0 0 .385-.928c-.038-.281-.3-.6-.822-1.24-.276-.337-.414-.505-.472-.687a1 1 0 0 1 .035-.702c.076-.174.23-.329.538-.637l.894-.893c.308-.308.462-.463.637-.538a1 1 0 0 1 .702-.035c.181.058.35.196.687.472.639.522.958.783 1.238.821a1 1 0 0 0 .93-.385c.17-.225.212-.635.294-1.456.043-.433.065-.65.152-.82a1 1 0 0 1 .521-.471c.177-.07.395-.07.831-.07h1.264c.436 0 .654 0 .83.07a1 1 0 0 1 .522.472ZM12 16a4 4 0 1 0 0-8 4 4 0 0 0 0 8Z" clip-rule="evenodd"/>
    </symbol>

    <!-- ====== EDIT SLIM ====== -->
    <symbol id="icon-slim-edit" viewBox="0 0 24 24">
        <path fill="currentColor" stroke="none" d="m6.391 14.608.354.354-.354-.354Zm7.194-7.194-.353-.353.353.353Zm2.829 0-.354.354.354-.354Zm.171.172.354-.354-.354.354Zm0 2.828.354.354-.354-.354Zm-7.194 7.194-.353-.353.353.353Zm-3.526-2.07.485.12-.485-.12Zm-.664 2.654-.485-.122.485.122Zm.607.606.121.485-.121-.485Zm2.654-.664-.121-.485.12.485Zm-3.296.7.354-.354-.354.353Zm3.815-.867-.247-.435.247.435ZM6.032 15.02l-.435-.247.435.246Zm6.675-6.726a.5.5 0 1 0-.708.707l.707-.707ZM14.998 12a.5.5 0 0 0 .707-.707L15 12Zm-8.254 2.962 7.194-7.194-.707-.707-7.194 7.194.707.707Zm9.315-7.194.172.171.707-.707-.172-.171-.707.707Zm.172 2.293-7.194 7.194.707.707 7.194-7.194-.707-.707ZM5.38 15.416l-.664 2.654.97.243.664-2.654-.97-.243Zm.55 3.867 2.653-.664-.242-.97-2.654.664.242.97ZM4.715 18.07c-.04.165-.087.343-.101.491-.015.155-.012.416.198.626l.707-.707a.317.317 0 0 1 .084.15c.008.036.004.052.006.029a1.1 1.1 0 0 1 .022-.12c.014-.062.032-.134.055-.226l-.97-.243Zm.97.243-.225.054a1.05 1.05 0 0 1-.12.022c-.024.003-.007-.002.029.006.046.01.102.037.15.085l-.707.707c.209.21.47.213.625.197.148-.014.327-.06.491-.101l-.242-.97Zm3.352-1.058c-.214.213-.258.251-.304.277l.493.87c.191-.108.342-.264.518-.44l-.707-.707Zm-.455 1.364c.242-.06.453-.108.644-.217l-.493-.87c-.045.026-.1.044-.393.117l.242.97Zm7.649-10.68c.343.344.564.566.706.752.132.174.147.255.147.309h1c0-.36-.152-.653-.352-.916-.192-.251-.471-.528-.794-.852l-.707.707Zm.707 2.829c.323-.324.602-.6.794-.852.2-.263.352-.556.352-.916h-1c0 .054-.015.135-.147.31-.142.185-.363.407-.706.75l.707.708Zm-3-3c.343-.344.566-.565.751-.706.174-.133.255-.148.31-.148v-1c-.361 0-.653.152-.916.353-.252.191-.53.47-.852.794l.707.707Zm2.828-.707c-.323-.324-.6-.603-.852-.794-.263-.2-.555-.353-.916-.353v1c.054 0 .135.015.31.148.185.141.408.362.751.706l.707-.707Zm-10.73 7.194c-.175.176-.332.326-.44.517l.87.493c.026-.046.064-.09.278-.303l-.707-.707Zm.313 1.404c.073-.293.091-.349.117-.394l-.87-.493c-.108.191-.157.403-.217.644l.97.243ZM12 9l3 3 .707-.707-3-3-.708.707Z"/>
    </symbol>

    <!-- ====== BAG SLIM ====== -->
    <symbol id="icon-slim-bag" viewBox="0 0 24 24">
        <path stroke="currentColor" fill="none" stroke-linecap="round" d="M7.999 12V8a4 4 0 0 1 8 0v4M5.172 21h13.653c1.017 0 1.526 0 1.823-.323.297-.323.255-.83.17-1.843l-.514-6.166c-.145-1.741-.217-2.611-.791-3.14C18.939 9 18.065 9 16.318 9H7.68c-1.747 0-2.62 0-3.194.528-.574.528-.647 1.399-.792 3.14l-.514 6.166c-.084 1.013-.126 1.52.17 1.843.298.323.806.323 1.823.323Z"/>
    </symbol>

    <!-- ====== USER SLIM ====== -->
    <symbol id="icon-slim-user" viewBox="0 0 24 24">
        <path stroke="currentColor" fill="none" stroke-linecap="round" d="M19.728 19.447c-.456-1.276-1.46-2.403-2.857-3.207C15.474 15.436 13.76 15 12 15c-1.761 0-3.473.436-4.87 1.24-1.397.804-2.402 1.931-2.858 3.207M16.001 8a4 4 0 1 1-8 0 4 4 0 0 1 8 0Z"/>
    </symbol>

    <!-- ====== FILTER SLIM ====== -->
    <symbol id="icon-slim-filter" viewBox="0 0 24 24">
        <path stroke="currentColor" fill="none" stroke-linecap="round" d="M12 7h8m-8 0a2 2 0 1 0-4 0m4 0a2 2 0 1 1-4 0M4 7h4m9 10h3m-3 0a2 2 0 1 0-4 0m4 0a2 2 0 1 1-4 0m-9 0h9"/>
    </symbol>

    <!-- ====== SEARCH SLIM ====== -->
    <symbol id="icon-slim-search" viewBox="0 0 24 24">
        <path stroke="currentColor" fill="none" stroke-linecap="round" d="M11 8a3 3 0 0 0-3 3m12 9-3-3m0-6a6 6 0 1 1-12 0 6 6 0 0 1 12 0Z"/>
    </symbol>

    <!-- ====== HEART SLIM ====== -->
    <symbol id="icon-slim-heart" viewBox="0 0 24 24">
        <path stroke="currentColor" fill="none" d="m4.45 13.908 6.952 6.531c.24.225.36.338.5.366a.499.499 0 0 0 .193 0c.141-.028.261-.14.5-.366l6.953-6.53a5.203 5.203 0 0 0 .549-6.983l-.31-.399c-1.968-2.536-5.919-2.111-7.302.787a.54.54 0 0 1-.973 0C10.13 4.416 6.178 3.99 4.21 6.527l-.31.399a5.203 5.203 0 0 0 .55 6.982Z"/>
    </symbol>

    <!-- ====== LIKE SLIM ====== -->
    <symbol id="icon-slim-like" viewBox="0 0 24 24">
        <path stroke="currentColor" fill="none" stroke-linecap="round" d="m8.5 11.5 1.894-3.789a1 1 0 0 0 .106-.447V5.5a1 1 0 0 1 1-1 2 2 0 0 1 2 2v4m-2 0h5.997a1 1 0 0 1 .96 1.28l-1.747 6a1 1 0 0 1-.96.72h-3.836a1 1 0 0 1-.707-.293l-.414-.414a1 1 0 0 0-.707-.293H8.5m-3 0h2.85a.15.15 0 0 0 .15-.15v-6.7a.15.15 0 0 0-.15-.15H5.5a1 1 0 0 0-1 1v5a1 1 0 0 0 1 1Z"/>
    </symbol>

    <!-- ====== DISLIKE SLIM ====== -->
    <symbol id="icon-slim-dislike" viewBox="0 0 24 24">
        <path stroke="currentColor" fill="none" stroke-linecap="round" d="m15.502 12.5-1.895 3.789a1 1 0 0 0-.105.447V18.5a1 1 0 0 1-1 1 2 2 0 0 1-2-2v-4m2 0H6.505a1 1 0 0 1-.96-1.28l1.747-6a1 1 0 0 1 .96-.72h3.835a1 1 0 0 1 .708.293l.414.414a1 1 0 0 0 .707.293h1.586m3 0h-2.85a.15.15 0 0 0-.15.15v6.7c0 .083.067.15.15.15h2.85a1 1 0 0 0 1-1v-5a1 1 0 0 0-1-1Z"/>
    </symbol>

    <!-- ====== FILE SLIM ====== -->
    <symbol id="icon-slim-file" viewBox="0 0 24 24">
        <path stroke="currentColor" fill="none" d="M12.5 3.5v3.6c0 .84 0 1.26.164 1.581a1.5 1.5 0 0 0 .655.656c.32.163.74.163 1.581.163h3.6m-.703-1.703-3.594-3.594c-.26-.26-.39-.39-.54-.482a1.5 1.5 0 0 0-.434-.18c-.173-.041-.356-.041-.723-.041H7.9c-.84 0-1.26 0-1.581.163a1.5 1.5 0 0 0-.656.656c-.163.32-.163.74-.163 1.581v12.2c0 .84 0 1.26.163 1.581a1.5 1.5 0 0 0 .656.655c.32.164.74.164 1.581.164h8.2c.84 0 1.26 0 1.581-.163a1.5 1.5 0 0 0 .655-.656c.164-.32.164-.74.164-1.581V9.494c0-.367 0-.55-.041-.723a1.503 1.503 0 0 0-.18-.433c-.093-.152-.223-.282-.482-.54Z"/>
    </symbol>

    <!-- ====== INFO SLIM ====== -->
    <symbol id="icon-slim-info" viewBox="0 0 24 24">
        <path stroke="currentColor" fill="none" stroke-linecap="round" d="M12 12v6m0-11V6m1.736 15.848a10.002 10.002 0 0 0 6.698-15.221 10 10 0 1 0-6.698 15.221Z"/>
    </symbol>

    <!-- ====== ALERT SLIM ====== -->
    <symbol id="icon-slim-alert" viewBox="0 0 24 24">
        <path stroke="currentColor" fill="none" d="M9.15 7.831a2.976 2.976 0 1 1 5.702 0l-1.563 5.211c-.07.234-.105.351-.16.447a1 1 0 0 1-.653.487C12.368 14 12.246 14 12 14c-.244 0-.366 0-.474-.024a1 1 0 0 1-.653-.487c-.055-.096-.09-.213-.16-.447L9.15 7.832ZM14.002 19a2 2 0 1 1-4 0 2 2 0 0 1 4 0Z"/>
    </symbol>

    <!-- ====== TRASH SLIM ====== -->
    <symbol id="icon-slim-trash" viewBox="0 0 24 24">
        <path fill="currentColor" stroke="none" d="M9 14.5a.5.5 0 0 0 1 0H9Zm1-3a.5.5 0 0 0-1 0h1Zm4 3a.5.5 0 0 0 1 0h-1Zm1-3a.5.5 0 0 0-1 0h1Zm3.389-4.663.278.416-.278-.416Zm-.552.552.416.278-.416-.278Zm-11.674 0-.416.278.416-.278Zm-.552-.552-.278.416.278-.416Zm8.442-3.113a.5.5 0 1 0 .894-.448l-.894.448Zm-5-.447a.5.5 0 0 0 .894.447l-.894-.447ZM10 14.5v-3H9v3h1Zm5 0v-3h-1v3h1ZM3 7h18V6H3v1Zm10.5 12h-3v1h3v-1ZM7 15.5V10H6v5.5h1ZM17 10v5.5h1V10h-1Zm4-4c-.692 0-1.248 0-1.694.045-.453.046-.847.144-1.195.376l.556.832c.156-.105.366-.175.74-.213C19.791 7 20.287 7 21 7V6Zm-3 4c0-.713 0-1.21.04-1.592.038-.375.108-.585.213-.741l-.832-.556c-.232.348-.33.742-.376 1.195C16.999 8.752 17 9.308 17 10h1Zm.111-3.579a2.5 2.5 0 0 0-.69.69l.832.556a1.5 1.5 0 0 1 .414-.414l-.556-.832ZM7 10c0-.692 0-1.248-.045-1.694-.046-.453-.144-.847-.376-1.195l-.832.556c.105.156.175.366.213.74C6 8.792 6 9.288 6 10h1ZM3 7c.713 0 1.21 0 1.592.04.375.038.585.108.741.213l.556-.832c-.348-.232-.742-.33-1.195-.376C4.248 5.999 3.692 6 3 6v1Zm3.579.111a2.5 2.5 0 0 0-.69-.69l-.556.832c.164.11.305.25.414.414l.832-.556ZM10.5 19c-.957 0-1.624-.001-2.128-.069-.49-.066-.748-.186-.933-.37l-.707.707c.402.401.907.574 1.507.654.586.08 1.332.078 2.261.078v-1ZM6 15.5c0 .929-.001 1.675.078 2.261.08.6.253 1.105.654 1.507l.707-.707c-.184-.185-.304-.444-.37-.933C7 17.124 7 16.457 7 15.5H6Zm7.5 4.5c.929 0 1.675.001 2.261-.078.6-.08 1.105-.253 1.507-.654l-.707-.707c-.185.184-.444.305-.933.37C15.124 19 14.457 19 13.5 19v1Zm3.5-4.5c0 .957-.001 1.624-.069 2.128-.066.49-.186.748-.37.933l.707.707c.401-.402.574-.907.654-1.507.08-.585.078-1.332.078-2.261h-1ZM12 3c.912 0 1.439.227 1.723.416.144.096.234.188.284.248a.655.655 0 0 1 .052.071l-.002-.003a.326.326 0 0 1-.004-.008L14.5 3.5l.447-.224v-.001l-.001-.002-.002-.003-.004-.008-.011-.02a1.648 1.648 0 0 0-.154-.219 2.315 2.315 0 0 0-.498-.439C13.811 2.274 13.087 2 12 2v1Zm-2.5.5a31.97 31.97 0 0 1 .447.225l-.001.001a.391.391 0 0 1-.003.006l-.002.003.005-.007a.655.655 0 0 1 .048-.064c.05-.06.14-.152.283-.248.284-.19.81-.416 1.723-.416V2c-1.088 0-1.811.273-2.277.584a2.327 2.327 0 0 0-.498.44 1.65 1.65 0 0 0-.169.246l-.002.004v.002L9.5 3.5Z"/>
    </symbol>

    <!-- ====== CALENDAR SLIM ====== -->
    <symbol id="icon-slim-calendar" viewBox="0 0 24 24">
        <path fill="currentColor" stroke="none" d="M3 10.5a.5.5 0 0 0 0 1v-1Zm18 1a.5.5 0 0 0 0-1v1Zm-12 4a.5.5 0 0 0 0 1v-1Zm6 1a.5.5 0 0 0 0-1v1ZM8.5 3a.5.5 0 0 0-1 0h1Zm-1 4a.5.5 0 0 0 1 0h-1Zm9-4a.5.5 0 0 0-1 0h1Zm-1 4a.5.5 0 0 0 1 0h-1ZM7 6.5h10v-1H7v1ZM20.5 10v7h1v-7h-1ZM17 20.5H7v1h10v-1ZM3.5 17v-7h-1v7h1ZM7 20.5c-.957 0-1.624-.001-2.128-.069-.49-.066-.748-.186-.933-.37l-.707.707c.402.401.907.574 1.507.654.586.08 1.332.078 2.261.078v-1ZM2.5 17c0 .929-.001 1.675.078 2.261.08.6.253 1.105.654 1.507l.707-.707c-.184-.185-.304-.444-.37-.933C3.5 18.624 3.5 17.957 3.5 17h-1Zm18 0c0 .957-.001 1.624-.069 2.128-.066.49-.186.748-.37.933l.707.707c.401-.402.574-.907.654-1.507.08-.585.078-1.332.078-2.261h-1ZM17 21.5c.929 0 1.675.001 2.261-.078.6-.08 1.105-.253 1.507-.654l-.707-.707c-.185.184-.444.305-.933.37-.504.068-1.171.069-2.128.069v1Zm0-15c.957 0 1.624.001 2.128.069.49.066.748.186.933.37l.707-.707c-.402-.401-.907-.574-1.507-.654C18.676 5.498 17.93 5.5 17 5.5v1Zm4.5 3.5c0-.929.001-1.675-.078-2.261-.08-.6-.253-1.105-.654-1.507l-.707.707c.184.185.305.444.37.933.068.504.069 1.171.069 2.128h1ZM7 5.5c-.929 0-1.675-.001-2.261.078-.6.08-1.105.253-1.507.654l.707.707c.185-.184.444-.304.933-.37C5.376 6.5 6.043 6.5 7 6.5v-1ZM3.5 10c0-.957.001-1.624.069-2.128.066-.49.186-.748.37-.933l-.707-.707c-.401.402-.574.907-.654 1.507C2.498 8.325 2.5 9.07 2.5 10h1ZM3 11.5h18v-1H3v1Zm6 5h6v-1H9v1ZM7.5 3v4h1V3h-1Zm8 0v4h1V3h-1Z"/>
    </symbol>

    <!-- ====== CLOCK SLIM ====== -->
    <symbol id="icon-slim-clock" viewBox="0 0 24 24">
        <path stroke="currentColor" fill="none" stroke-linecap="round" d="M17.625 12h-5.313a.312.312 0 0 1-.312-.313V7.625M22 12c0 5.523-4.477 10-10 10S2 17.523 2 12 6.477 2 12 2s10 4.477 10 10Z"/>
    </symbol>

    <!-- ====== SHARE SLIM ====== -->
    <symbol id="icon-slim-share" viewBox="0 0 24 24">
        <path fill="currentColor" stroke="none" d="M20.5 3.5h.5V3h-.5v.5Zm-9 2.5a.5.5 0 0 0 0-1v1Zm7.5 6.5a.5.5 0 0 0-1 0h1ZM15 4h5.5V3H15v1Zm5-.5V9h1V3.5h-1Zm.146-.354-8 8 .708.708 8-8-.708-.708ZM5 7.5v9h1v-9H5ZM7.5 19h9v-1h-9v1Zm4-14h-4v1h4V5ZM19 16.5v-4h-1v4h1ZM16.5 19a2.5 2.5 0 0 0 2.5-2.5h-1a1.5 1.5 0 0 1-1.5 1.5v1ZM5 16.5A2.5 2.5 0 0 0 7.5 19v-1A1.5 1.5 0 0 1 6 16.5H5Zm1-9A1.5 1.5 0 0 1 7.5 6V5A2.5 2.5 0 0 0 5 7.5h1Z"/>
    </symbol>

    <!-- ====== LOCK SLIM ====== -->
    <symbol id="icon-slim-lock" viewBox="0 0 24 24">
        <path stroke="currentColor" fill="none" stroke-linecap="round" d="M16.5 9.5V8a4.5 4.5 0 1 0-9 0v1.5M14 15a2 2 0 1 1-4 0 2 2 0 0 1 4 0Zm-3.5 5.5h3c2.828 0 4.243 0 5.121-.879.879-.878.879-2.293.879-5.121v-1c0-1.886 0-2.828-.586-3.414C18.328 9.5 17.386 9.5 15.5 9.5h-7c-1.886 0-2.828 0-3.414.586-.586.586-.586 1.528-.586 3.414v1c0 2.828 0 4.243.879 5.121.878.879 2.293.879 5.121.879Z"/>
    </symbol>

    <!-- ====== STAR SLIM ====== -->
    <symbol id="icon-slim-star" viewBox="0 0 24 24">
        <path stroke="currentColor" fill="none" d="M10.144 6.628c.787-1.961 1.18-2.942 1.857-2.942.676 0 1.07.98 1.856 2.942l.036.09c.445 1.109.667 1.663 1.12 2 .453.336 1.047.39 2.236.496l.215.019c1.946.174 2.919.261 3.127.88.208.62-.514 1.277-1.96 2.591l-.482.44c-.731.665-1.097.997-1.268 1.434a1.997 1.997 0 0 0-.079.25c-.112.454-.005.937.21 1.902l.066.3c.394 1.775.59 2.662.247 3.045a1 1 0 0 1-.48.296c-.497.136-1.201-.438-2.61-1.587-.925-.753-1.388-1.13-1.92-1.215a1.997 1.997 0 0 0-.63 0c-.53.085-.994.462-1.919 1.215-1.409 1.149-2.113 1.723-2.61 1.587a1 1 0 0 1-.48-.296c-.344-.383-.147-1.27.247-3.044l.066-.301c.215-.966.322-1.448.21-1.903a1.997 1.997 0 0 0-.08-.25c-.17-.436-.536-.768-1.267-1.434l-.482-.439c-1.445-1.314-2.168-1.972-1.96-2.59.208-.62 1.181-.707 3.127-.881l.215-.02c1.189-.106 1.783-.159 2.236-.496.453-.336.675-.89 1.12-1.998l.036-.091Z"/>
    </symbol>

    <!-- ====== EYE-OFF SLIM ====== -->
    <symbol id="icon-slim-eye-off" viewBox="0 0 24 24">
        <path fill="currentColor" stroke="none" d="m3.812 13.066.386-.318-.386.318Zm0-2.132.386.318-.386-.318Zm16.376 2.132-.386-.318.386.318Zm0-2.132-.386.318.386-.318ZM20.77 12h.5-.5Zm-5.27 0a3.5 3.5 0 0 1-3.5 3.5v1a4.5 4.5 0 0 0 4.5-4.5h-1ZM12 15.5A3.5 3.5 0 0 1 8.5 12h-1a4.5 4.5 0 0 0 4.5 4.5v-1ZM8.5 12A3.5 3.5 0 0 1 12 8.5v-1A4.5 4.5 0 0 0 7.5 12h1ZM12 8.5a3.5 3.5 0 0 1 3.5 3.5h1A4.5 4.5 0 0 0 12 7.5v1Zm7.802 4.248c-.695.844-1.802 2.042-3.17 3.026-1.37.986-2.96 1.726-4.632 1.726v1c1.964 0 3.758-.865 5.217-1.915 1.463-1.052 2.632-2.321 3.357-3.201l-.772-.636ZM12 17.5c-1.672 0-3.262-.74-4.633-1.726-1.367-.984-2.474-2.182-3.17-3.026l-.771.636c.725.88 1.894 2.149 3.357 3.201C8.243 17.635 10.036 18.5 12 18.5v-1Zm-7.802-6.248C4.893 10.408 6 9.21 7.368 8.226 8.737 7.24 10.327 6.5 12 6.5v-1c-1.964 0-3.758.865-5.217 1.915-1.463 1.052-2.632 2.321-3.357 3.201l.772.636ZM12 6.5c1.672 0 3.262.74 4.633 1.726 1.367.984 2.474 2.182 3.17 3.026l.771-.636c-.725-.88-1.894-2.149-3.357-3.201C15.757 6.365 13.964 5.5 12 5.5v1Zm-7.802 6.248c-.424-.515-.468-.604-.468-.748h-1c0 .574.344.956.696 1.384l.772-.636Zm-.772-2.132c-.352.428-.696.81-.696 1.384h1c0-.143.044-.233.468-.748l-.772-.636Zm17.148 2.768c.352-.428.696-.81.696-1.384h-1c0 .143-.043.233-.468.748l.772.636Zm-.772-2.132c.425.515.468.604.468.748h1c0-.574-.344-.956-.696-1.384l-.772.636ZM2.646 2.354l18 18 .708-.708-18-18-.708.708Z"/>
    </symbol>

    <!-- ====== CHART SLIM ====== -->
    <symbol id="icon-slim-chart" viewBox="0 0 24 24">
        <path fill="currentColor" stroke="none" d="M8.5 10a.5.5 0 0 0-1 0h1Zm-1 6a.5.5 0 0 0 1 0h-1Zm5-4a.5.5 0 0 0-1 0h1Zm-1 4a.5.5 0 0 0 1 0h-1Zm5-8a.5.5 0 0 0-1 0h1Zm-1 8a.5.5 0 0 0 1 0h-1Zm-8-6v6h1v-6h-1Zm4 2v4h1v-4h-1Zm4-4v8h1V8h-1ZM7 4.5h10v-1H7v1ZM20.5 8v8h1V8h-1ZM17 19.5H7v1h10v-1ZM3.5 16V8h-1v8h1ZM7 19.5c-.957 0-1.624-.001-2.128-.069-.49-.066-.748-.186-.933-.37l-.707.707c.402.401.907.574 1.507.654.586.08 1.332.078 2.261.078v-1ZM2.5 16c0 .929-.001 1.675.078 2.261.08.6.253 1.105.654 1.507l.707-.707c-.184-.185-.304-.444-.37-.933C3.5 17.624 3.5 16.957 3.5 16h-1Zm18 0c0 .957-.001 1.624-.069 2.128-.066.49-.186.748-.37.933l.707.707c.401-.402.574-.907.654-1.507.08-.585.078-1.332.078-2.261h-1ZM17 20.5c.929 0 1.675.001 2.261-.078.6-.08 1.105-.253 1.507-.654l-.707-.707c-.185.184-.444.305-.933.37-.504.068-1.171.069-2.128.069v1Zm0-16c.957 0 1.624.001 2.128.069.49.066.748.186.933.37l.707-.707c-.402-.401-.907-.574-1.507-.654C18.676 3.498 17.93 3.5 17 3.5v1ZM21.5 8c0-.929.001-1.675-.078-2.261-.08-.6-.253-1.105-.654-1.507l-.707.707c.184.185.305.444.37.933.068.504.069 1.171.069 2.128h1ZM7 3.5c-.929 0-1.675-.001-2.261.078-.6.08-1.105.253-1.507.654l.707.707c.185-.184.444-.304.933-.37C5.376 4.5 6.043 4.5 7 4.5v-1ZM3.5 8c0-.957.001-1.624.069-2.128.066-.49.186-.748.37-.933l-.707-.707c-.401.402-.574.907-.654 1.507C2.498 6.325 2.5 7.07 2.5 8h1Z"/>
    </symbol>

    <!-- ====== MESSAGE SLIM ====== -->
    <symbol id="icon-slim-message" viewBox="0 0 24 24">
        <path fill="currentColor" stroke="none" d="M9 9.5a.5.5 0 0 0 0 1v-1Zm6 1a.5.5 0 0 0 0-1v1Zm-6 3a.5.5 0 0 0 0 1v-1Zm3 1a.5.5 0 0 0 0-1v1ZM3.5 12v6h1v-6h-1ZM6 20.5h6v-1H6v1Zm6 0c1.871 0 3.325.001 4.456-.15 1.144-.155 2.032-.474 2.726-1.168l-.707-.707c-.478.477-1.119.744-2.152.883-1.049.14-2.423.142-4.323.142v1Zm7.5-8.5c0 1.9-.001 3.274-.142 4.323-.139 1.033-.406 1.674-.883 2.152l.707.707c.694-.694 1.013-1.582 1.167-2.726.152-1.13.151-2.585.151-4.456h-1Zm-16 6c0 .457-.001.85.041 1.164.044.328.144.642.398.897l.707-.707c-.038-.038-.085-.107-.114-.323-.03-.232-.032-.546-.032-1.031h-1ZM6 19.5c-.486 0-.8-.001-1.03-.032-.218-.03-.285-.076-.324-.114l-.707.707c.255.255.57.354.897.398.313.042.707.041 1.164.041v-1Zm6-16c-1.871 0-3.325-.001-4.456.15-1.144.155-2.032.474-2.726 1.168l.707.707c.478-.477 1.119-.744 2.153-.883C8.726 4.502 10.1 4.5 12 4.5v-1ZM4.5 12c0-1.9.001-3.274.142-4.322.139-1.034.406-1.675.883-2.153l-.707-.707c-.694.694-1.013 1.582-1.167 2.726C3.499 8.674 3.5 10.13 3.5 12h1ZM12 4.5c1.9 0 3.274.001 4.323.142 1.033.139 1.674.406 2.152.883l.707-.707c-.694-.694-1.582-1.013-2.726-1.167C15.326 3.499 13.87 3.5 12 3.5v1Zm8.5 7.5c0-1.871.001-3.325-.15-4.456-.155-1.144-.474-2.032-1.168-2.726l-.707.707c.477.478.744 1.119.883 2.153.14 1.048.142 2.422.142 4.322h1ZM9 10.5h6v-1H9v1Zm0 4h3v-1H9v1Z"/>
    </symbol>

    <!-- ====== MESSAGE PLUS SLIM ====== -->
    <symbol id="icon-slim-message-plus" viewBox="0 0 24 24">
        <path fill="currentColor" stroke="none" d="m17.758 17.897-.345-.362.345.362Zm1.742-6.772a.5.5 0 0 0-1 0h1Zm-1.603 6.633-.362-.345.362.345ZM6.103 6.242l.362.345-.362-.345Zm6.772-.742a.5.5 0 0 0 0-1v1Zm-6.633.603.345.362-.345-.362ZM9 9.5a.5.5 0 0 0 0 1v-1Zm6 1a.5.5 0 0 0 0-1v1Zm-6 3a.5.5 0 0 0 0 1v-1Zm3 1a.5.5 0 0 0 0-1v1ZM18.5 8a.5.5 0 0 0 1 0h-1Zm1-6a.5.5 0 0 0-1 0h1ZM16 4.5a.5.5 0 0 0 0 1v-1Zm6 1a.5.5 0 0 0 0-1v1ZM4.5 12.875V17h1v-4.125h-1ZM7 19.5h4.125v-1H7v1Zm4.125 0c1.811 0 3.218.001 4.315-.142 1.111-.145 1.976-.445 2.663-1.099l-.69-.724c-.471.449-1.098.7-2.102.831-1.017.133-2.348.134-4.186.134v1Zm7.375-8.375c0 1.838-.001 3.169-.134 4.186-.13 1.004-.382 1.63-.831 2.102l.724.69c.654-.687.954-1.552 1.099-2.663.143-1.097.142-2.504.142-4.315h-1Zm-.397 7.134a4.59 4.59 0 0 0 .156-.156l-.724-.69a3.48 3.48 0 0 1-.122.122l.69.724ZM4.5 17c0 .457-.001.85.041 1.164.044.328.144.642.398.897l.707-.707c-.038-.038-.085-.107-.114-.323-.03-.232-.032-.546-.032-1.031h-1ZM7 18.5c-.486 0-.8-.001-1.03-.032-.218-.03-.285-.076-.324-.114l-.707.707c.255.255.57.354.897.398.313.042.707.041 1.164.041v-1Zm-1.5-5.625c0-1.838.001-3.169.134-4.186.13-1.004.382-1.63.831-2.102l-.724-.69c-.654.687-.954 1.552-1.099 2.663C4.5 9.657 4.5 11.064 4.5 12.875h1ZM12.875 4.5c-1.811 0-3.218-.001-4.315.142-1.111.145-1.976.445-2.663 1.099l.69.724c.471-.449 1.098-.7 2.102-.831C9.706 5.5 11.037 5.5 12.875 5.5v-1Zm-6.41 2.087c.04-.042.08-.082.122-.122l-.69-.724a4.59 4.59 0 0 0-.156.156l.724.69ZM9 10.5h6v-1H9v1Zm0 4h3v-1H9v1ZM19.5 8V5h-1v3h1Zm0-3V2h-1v3h1Zm-3.5.5h3v-1h-3v1Zm3 0h3v-1h-3v1Z"/>
    </symbol>

    <!-- ====== SORT SLIM ====== -->
    <symbol id="icon-slim-sort" viewBox="0 0 24 24">
        <path fill="currentColor" stroke="none" d="m8 2 .354-.354L8 1.293l-.354.353L8 2Zm-.5 15a.5.5 0 0 0 1 0h-1Zm8.5 5-.354.354.354.353.354-.353L16 22Zm.5-15a.5.5 0 0 0-1 0h1ZM4.354 6.354l4-4-.708-.708-4 4 .708.708Zm3.292-4 4 4 .708-.708-4-4-.708.708ZM7.5 2v15h1V2h-1Zm4.146 16.354 4 4 .708-.708-4-4-.708.708Zm4.708 4 4-4-.708-.708-4 4 .708.708ZM16.5 22V7h-1v15h1Z"/>
    </symbol>

    <!-- ====== SIGN OUT SLIM ====== -->
    <symbol id="icon-slim-sign-out" viewBox="0 0 24 24">
        <path fill="currentColor" stroke="none" d="m2 12-.39-.312-.25.312.25.312L2 12Zm9 .5a.5.5 0 0 0 0-1v1Zm2.342-9.057-.082-.493.082.493Zm1.672-.279.082.494-.082-.494Zm0 17.672.082-.494-.082.494Zm-1.672-.279-.082.493.082-.493Zm-2.868-.958.381-.324-.381.324Zm10.465 1.149.323.381-.323-.381Zm0-17.496.323-.381-.323.381Zm-10.465 1.15-.382-.324.382.323ZM5.61 6.687l-4 5 .78.624 4-5-.78-.624Zm-4 5.624 4 5 .78-.624-4-5-.78.624ZM2 12.5h9v-1H2v1Zm11.425-8.564 1.67-.278-.164-.987-1.67.279.164.986ZM21.5 9.083v5.834h1V9.083h-1Zm-6.404 11.26-1.671-.28-.165.987 1.671.279.165-.987ZM10.5 8.131v-.744h-1v.744h1Zm0 8.48v-.546h-1v.546h1Zm2.925 3.452c-.811-.135-1.373-.23-1.795-.355-.408-.122-.624-.256-.775-.434l-.763.647c.324.381.744.594 1.253.745.495.147 1.13.252 1.915.383l.165-.986ZM9.5 16.61c0 .797 0 1.44.063 1.953.066.526.206.976.53 1.358l.762-.647c-.15-.177-.247-.412-.3-.835-.054-.436-.055-1.007-.055-1.829h-1Zm12-1.694c0 1.66-.001 2.85-.128 3.741-.124.877-.359 1.372-.756 1.708l.646.763c.664-.562.96-1.339 1.1-2.33.14-.978.138-2.253.138-3.882h-1Zm-6.569 6.412c1.607.267 2.865.478 3.852.502 1 .024 1.816-.14 2.48-.702l-.647-.763c-.397.337-.924.487-1.81.465-.899-.021-2.074-.216-3.71-.489l-.165.987Zm.165-17.671c1.636-.273 2.811-.468 3.71-.49.886-.02 1.413.13 1.81.466l.646-.763c-.663-.562-1.478-.726-2.48-.702-.986.024-2.244.234-3.85.502l.164.987ZM22.5 9.083c0-1.629.001-2.904-.138-3.882-.14-.991-.436-1.768-1.1-2.33l-.646.763c.397.336.632.83.756 1.708.127.89.128 2.082.128 3.74h1ZM13.26 2.95c-.785.13-1.42.236-1.915.383-.509.151-.93.363-1.253.745l.763.647c.15-.178.367-.312.775-.434.421-.125.984-.22 1.795-.355l-.165-.986ZM10.5 7.388c0-.822 0-1.392.055-1.828.053-.423.15-.658.3-.835l-.763-.647c-.323.382-.463.831-.529 1.358C9.5 5.949 9.5 6.592 9.5 7.388h1Z"/>
    </symbol>

    <!-- ====== SIGN IN SLIM ====== -->
    <symbol id="icon-slim-sign-in" viewBox="0 0 24 24">
        <path fill="currentColor" stroke="none" d="m11.566 2.652-.071.495.07-.495Zm4.282.612-.07.495.07-.495Zm0 17.472-.07-.495.07.495Zm-4.282.612-.071-.495.07.495Zm-3.876-.143-.328.378.328-.378Zm12.576-1.841.378.327-.378-.327Zm0-14.728.378-.327-.378.327ZM16 12l.39.312.25-.312-.25-.312L16 12Zm-12-.5a.5.5 0 1 0 0 1v-1Zm7.495-8.353 4.283.612.141-.99-4.283-.612-.141.99ZM20.5 9.204v5.592h1V9.204h-1ZM15.778 20.24l-4.283.612.141.99 4.283-.612-.141-.99ZM7.5 7.13v-.519h-1v.52h1Zm0 10.257v-.322h-1v.322h1Zm3.995 3.465c-1.077.154-1.833.26-2.406.261-.56.001-.857-.1-1.072-.287l-.655.756c.474.411 1.054.533 1.729.531.66 0 1.498-.122 2.545-.271l-.141-.99ZM6.5 17.388c0 1.058-.001 1.904.091 2.559.094.668.297 1.224.771 1.636l.655-.756c-.215-.187-.358-.466-.436-1.02-.08-.568-.081-1.331-.081-2.42h-1Zm14-2.592c0 1.254 0 2.147-.088 2.835-.085.673-.246 1.085-.523 1.405l.755.655c.456-.526.662-1.157.76-1.935.097-.765.096-1.732.096-2.96h-1Zm-4.58 6.435c1.214-.174 2.172-.31 2.916-.513.756-.208 1.352-.5 1.808-1.027l-.755-.655c-.278.32-.663.538-1.318.717-.668.183-1.552.31-2.793.488l.141.99Zm-.142-17.472c1.24.177 2.125.305 2.793.488.655.18 1.04.397 1.318.717l.755-.655c-.456-.526-1.052-.82-1.808-1.027-.744-.203-1.702-.34-2.917-.513l-.141.99ZM21.5 9.204c0-1.228 0-2.195-.096-2.96-.098-.778-.304-1.41-.76-1.935l-.755.655c.277.32.438.732.523 1.405.087.688.088 1.581.088 2.835h1Zm-9.864-7.047c-1.047-.15-1.885-.27-2.545-.271-.675-.002-1.255.12-1.729.531l.655.756c.215-.187.512-.288 1.072-.287.573 0 1.329.107 2.406.261l.141-.99ZM7.5 6.612c0-1.088.001-1.85.081-2.42.078-.553.221-.833.436-1.02l-.655-.755c-.474.412-.677.968-.77 1.636-.093.655-.092 1.501-.092 2.559h1Zm4.11.7 4 5 .78-.624-4-5-.78.624Zm4 4.376-4 5 .78.624 4-5-.78-.624ZM16 11.5H4v1h12v-1Z"/>
    </symbol>

    <!-- ====== WALLET SLIM ====== -->
    <symbol id="icon-slim-wallet" viewBox="0 0 24 24">
        <path stroke="currentColor" fill="none" d="M4.5 6.5v9c0 1.886 0 2.828.586 3.414.586.586 1.528.586 3.414.586h9c.943 0 1.414 0 1.707-.293.293-.293.293-.764.293-1.707v-1m-15-10a2 2 0 0 0 2 2h8.571M4.5 6.5a2 2 0 0 1 2-2h11.429c.066 0 .1 0 .127.003a.5.5 0 0 1 .44.441.985.985 0 0 1 .004.127c0 .398 0 .597-.019.765a3 3 0 0 1-2.645 2.645c-.168.019-.367.019-.765.019m0 0H17.5c.943 0 1.414 0 1.707.293.293.293.293.764.293 1.707v2m0 4h-2c-.943 0-1.414 0-1.707-.293-.293-.293-.293-.764-.293-1.707 0-.943 0-1.414.293-1.707.293-.293.764-.293 1.707-.293h2m0 4v-4"/>
    </symbol>

    <!-- ====== CARDS SLIM ====== -->
    <symbol id="icon-slim-cards" viewBox="0 0 24 24">
        <path stroke="currentColor" fill="none" stroke-linecap="round" d="M3 5c0-.943 0-1.414.293-1.707C3.586 3 4.057 3 5 3h3c.943 0 1.414 0 1.707.293C10 3.586 10 4.057 10 5v3c0 .943 0 1.414-.293 1.707C9.414 10 8.943 10 8 10H5c-.943 0-1.414 0-1.707-.293C3 9.414 3 8.943 3 8V5Zm0 11c0-.943 0-1.414.293-1.707C3.586 14 4.057 14 5 14h3c.943 0 1.414 0 1.707.293.293.293.293.764.293 1.707v3c0 .943 0 1.414-.293 1.707C9.414 21 8.943 21 8 21H5c-.943 0-1.414 0-1.707-.293C3 20.414 3 19.943 3 19v-3ZM14 5c0-.943 0-1.414.293-1.707C14.586 3 15.057 3 16 3h3c.943 0 1.414 0 1.707.293C21 3.586 21 4.057 21 5v3c0 .943 0 1.414-.293 1.707C20.414 10 19.943 10 19 10h-3c-.943 0-1.414 0-1.707-.293C14 9.414 14 8.943 14 8V5Zm0 11c0-.943 0-1.414.293-1.707C14.586 14 15.057 14 16 14h3c.943 0 1.414 0 1.707.293.293.293.293.764.293 1.707v3c0 .943 0 1.414-.293 1.707C20.414 21 19.943 21 19 21h-3c-.943 0-1.414 0-1.707-.293C14 20.414 14 19.943 14 19v-3Z"/>
    </symbol>

    <!-- ====== UPLOAD SLIM ====== -->
    <symbol id="icon-slim-upload" viewBox="0 0 24 24">
        <path fill="currentColor" stroke="none" d="m12 5 .354-.354L12 4.293l-.354.353L12 5Zm-.5 9a.5.5 0 0 0 1 0h-1ZM7 19v-.5.5Zm10 0v.5-.5Zm-9.646-8.646 5-5-.708-.708-5 5 .708.708Zm4.292-5 5 5 .708-.708-5-5-.708.708ZM11.5 5v9h1V5h-1ZM7 19.5h10v-1H7v1ZM5.5 17v-1h-1v1h1Zm14 0v-1h-1v1h1ZM17 19.5a2.5 2.5 0 0 0 2.5-2.5h-1a1.5 1.5 0 0 1-1.5 1.5v1Zm-10-1A1.5 1.5 0 0 1 5.5 17h-1A2.5 2.5 0 0 0 7 19.5v-1Z"/>
    </symbol>

    <!-- ====== LIST SLIM ====== -->
    <symbol id="icon-slim-list" viewBox="0 0 24 24">
        <path fill="currentColor" stroke="none" d="M19.5 7a.5.5 0 1 1-1 0 .5.5 0 0 1 1 0Zm0 5a.5.5 0 1 1-1 0 .5.5 0 0 1 1 0Zm0 5a.5.5 0 1 1-1 0 .5.5 0 0 1 1 0Z"/>
        <path stroke="currentColor" fill="none" stroke-linecap="round" d="M5 12h10M5 7h10M5 17h10m4.5-10a.5.5 0 1 1-1 0 .5.5 0 0 1 1 0Zm0 5a.5.5 0 1 1-1 0 .5.5 0 0 1 1 0Zm0 5a.5.5 0 1 1-1 0 .5.5 0 0 1 1 0Z"/>
    </symbol>

    <!-- ====== MENU SLIM ====== -->
    <symbol id="icon-slim-menu" viewBox="0 0 24 24">
        <path stroke="currentColor" fill="none" stroke-linecap="round" d="M5 7h14M5 12h14M5 17h14"/>
    </symbol>

    <!-- ====== MENU DOTS SLIM ====== -->
    <symbol id="icon-slim-menu-dots" viewBox="0 0 24 24">
        <path stroke="currentColor" fill="none" stroke-linecap="round" stroke-linejoin="round" d="M11.5 11.5a.5.5 0 1 0 1 0 .5.5 0 0 0-1 0Zm6.5 0a.5.5 0 1 0 1 0 .5.5 0 0 0-1 0Zm-13 0a.5.5 0 1 0 1 0 .5.5 0 0 0-1 0Z"/>
    </symbol>

    <!-- ====== PLUS SLIM ====== -->
    <symbol id="icon-slim-plus" viewBox="0 0 24 24">
        <path stroke="currentColor" fill="none" stroke-linecap="round" d="M4.5 12h15m-7.498 7.5v-15"/>
    </symbol>

    <!-- ====== MINUS SLIM ====== -->
    <symbol id="icon-slim-minus" viewBox="0 0 24 24">
        <path stroke="currentColor" fill="none" stroke-linecap="round" d="M4.5 12h15"/>
    </symbol>

    <!-- ***********************************
    * CHEVRONS SLIM
    **************************************** -->
    <symbol id="icon-slim-chevron-down" viewBox="0 0 24 24">
        <path stroke="currentColor" fill="none" d="m18 9-6 6-6-6"/>
    </symbol>

    <symbol id="icon-slim-chevron-up" viewBox="0 0 24 24">
        <path stroke="currentColor" fill="none" d="m18 15-6-6-6 6"/>
    </symbol>

    <symbol id="icon-slim-chevron-right" viewBox="0 0 24 24">
        <path stroke="currentColor" fill="none" d="m9 6 6 6-6 6"/>
    </symbol>

    <symbol id="icon-slim-chevron-left" viewBox="0 0 24 24">
        <path stroke="currentColor" fill="none" d="m15 6-6 6 6 6"/>
    </symbol>

    <!-- ***********************************
    * ARROWS SLIM
    **************************************** -->
    <symbol id="icon-slim-arrow-down" viewBox="0 0 24 24">
        <path fill="currentColor" stroke="none" d="m12 20-.354.354.354.353.354-.353L12 20Zm.5-15a.5.5 0 0 0-1 0h1Zm-6.854 9.354 6 6 .708-.708-6-6-.708.708Zm6.708 6 6-6-.708-.708-6 6 .708.708ZM12.5 20V5h-1v15h1Z"/>
    </symbol>

    <symbol id="icon-slim-arrow-up" viewBox="0 0 24 24">
        <path fill="currentColor" stroke="none" d="m12 4 .354-.354L12 3.293l-.354.353L12 4Zm-.5 15a.5.5 0 0 0 1 0h-1Zm-5.146-8.646 6-6-.708-.708-6 6 .708.708Zm5.292-6 6 6 .708-.708-6-6-.708.708ZM11.5 4v15h1V4h-1Z"/>
    </symbol>

    <symbol id="icon-slim-arrow-right" viewBox="0 0 24 24">
        <path fill="currentColor" stroke="none" d="m20 12 .354.354.353-.354-.353-.354L20 12Zm-15-.5a.5.5 0 0 0 0 1v-1Zm8.646-5.146 6 6 .708-.708-6-6-.708.708Zm6 5.292-6 6 .708.708 6-6-.708-.708ZM20 11.5H5v1h15v-1Z"/>
    </symbol>

    <symbol id="icon-slim-arrow-left" viewBox="0 0 24 24">
        <path fill="currentColor" stroke="none" d="m4 12-.354-.354-.353.354.353.354L4 12Zm15 .5a.5.5 0 0 0 0-1v1ZM9.646 5.646l-6 6 .708.708 6-6-.708-.708Zm-6 6.708 6 6 .708-.708-6-6-.708.708ZM4 12.5h15v-1H4v1Z"/>
    </symbol>
</svg>

